<svg width="152" height="76" viewBox="0 0 152 76" fill="none" xmlns="http://www.w3.org/2000/svg">
<rect x="8" y="14.5" width="134" height="47" fill="#2B2B2B"/>
<path fill-rule="evenodd" clip-rule="evenodd" d="M51 56.5V19.5H55V56.5H51Z" fill="#232222"/>
<path fill-rule="evenodd" clip-rule="evenodd" d="M96 56.5V19.5H100V56.5H96Z" fill="#232222"/>
<path d="M0 3.5C0 1.84315 1.34315 0.5 3 0.5H33C34.6569 0.5 36 1.84315 36 3.5V16.5C36 18.1569 34.6569 19.5 33 19.5H3C1.34315 19.5 0 18.1569 0 16.5V3.5Z" fill="#3B3B3B"/>
<path d="M40 3.5C40 1.84315 41.3431 0.5 43 0.5H71C72.6569 0.5 74 1.84315 74 3.5V16.5C74 18.1569 72.6569 19.5 71 19.5H43C41.3431 19.5 40 18.1569 40 16.5V3.5Z" fill="#3B3B3B"/>
<path d="M78 3.5C78 1.84315 79.3431 0.5 81 0.5H109C110.657 0.5 112 1.84315 112 3.5V16.5C112 18.1569 110.657 19.5 109 19.5H81C79.3431 19.5 78 18.1569 78 16.5V3.5Z" fill="#3B3B3B"/>
<path d="M116 3.5C116 1.84315 117.343 0.5 119 0.5H149C150.657 0.5 152 1.84315 152 3.5V16.5C152 18.1569 150.657 19.5 149 19.5H119C117.343 19.5 116 18.1569 116 16.5V3.5Z" fill="#3B3B3B"/>
<path d="M0 59.5C0 57.8431 1.34315 56.5 3 56.5H33C34.6569 56.5 36 57.8431 36 59.5V72.5C36 74.1569 34.6569 75.5 33 75.5H3C1.34315 75.5 0 74.1569 0 72.5V59.5Z" fill="#3B3B3B"/>
<path d="M40 59.5C40 57.8431 41.3431 56.5 43 56.5H71C72.6569 56.5 74 57.8431 74 59.5V72.5C74 74.1569 72.6569 75.5 71 75.5H43C41.3431 75.5 40 74.1569 40 72.5V59.5Z" fill="#3B3B3B"/>
<path d="M78 59.5C78 57.8431 79.3431 56.5 81 56.5H109C110.657 56.5 112 57.8431 112 59.5V72.5C112 74.1569 110.657 75.5 109 75.5H81C79.3431 75.5 78 74.1569 78 72.5V59.5Z" fill="#3B3B3B"/>
<path d="M116 59.5C116 57.8431 117.343 56.5 119 56.5H149C150.657 56.5 152 57.8431 152 59.5V72.5C152 74.1569 150.657 75.5 149 75.5H119C117.343 75.5 116 74.1569 116 72.5V59.5Z" fill="#3B3B3B"/>
<path fill-rule="evenodd" clip-rule="evenodd" d="M36 16.5V3.5H40V16.5H36Z" fill="#323232"/>
<path fill-rule="evenodd" clip-rule="evenodd" d="M74 16.5V3.5H78V16.5H74Z" fill="#323232"/>
<path fill-rule="evenodd" clip-rule="evenodd" d="M112 16.5V3.5H116V16.5H112Z" fill="#323232"/>
<path fill-rule="evenodd" clip-rule="evenodd" d="M36 72.5V59.5H40V72.5H36Z" fill="#323232"/>
<path fill-rule="evenodd" clip-rule="evenodd" d="M74 72.5V59.5H78V72.5H74Z" fill="#323232"/>
<path fill-rule="evenodd" clip-rule="evenodd" d="M112 72.5V59.5H116V72.5H112Z" fill="#323232"/>
</svg>
