<svg width="145" height="146" viewBox="0 0 145 146" fill="none" xmlns="http://www.w3.org/2000/svg">
<path d="M30 118.501H42V139.501C42 142.815 39.3137 145.501 36 145.501C32.6863 145.501 30 142.815 30 139.501V118.501Z" fill="#2B2B2B"/>
<path d="M101 118.501H113V139.501C113 142.815 110.314 145.501 107 145.501C103.686 145.501 101 142.815 101 139.501V118.501Z" fill="#2B2B2B"/>
<path d="M9 5.50098H136V111.501C136 122.547 127.046 131.501 116 131.501H29C17.9543 131.501 9 122.547 9 111.501V5.50098Z" fill="#323232"/>
<rect y="0.500977" width="145" height="24" rx="9" fill="#2B2B2B"/>
<path d="M101 77.001C101 92.7411 88.2401 105.501 72.5 105.501C56.7599 105.501 44 92.7411 44 77.001C44 61.2609 56.7599 48.501 72.5 48.501C88.2401 48.501 101 61.2609 101 77.001ZM53.6593 77.001C53.6593 87.4064 62.0946 95.8417 72.5 95.8417C82.9054 95.8417 91.3407 87.4064 91.3407 77.001C91.3407 66.5955 82.9054 58.1603 72.5 58.1603C62.0946 58.1603 53.6593 66.5955 53.6593 77.001Z" fill="#3B3B3B"/>
<rect x="79" y="42.501" width="24" height="13" rx="6.5" transform="rotate(90 79 42.501)" fill="#2B2B2B"/>
<path d="M52 26.5C48.134 26.5 45 23.366 45 19.5L45 0.500001L59 0.5L59 19.5C59 23.366 55.866 26.5 52 26.5Z" fill="#FFE920"/>
<path d="M104 26.5C100.134 26.5 97 23.366 97 19.5V0.500001L111 0.5V19.5C111 23.366 107.866 26.5 104 26.5Z" fill="#FFE920"/>
<path d="M118 37.5C114.134 37.5 111 34.366 111 30.5V0.5H125V30.5C125 34.366 121.866 37.5 118 37.5Z" fill="#FFE920"/>
</svg>
