<svg width="262" height="17" viewBox="0 0 262 17" fill="none" xmlns="http://www.w3.org/2000/svg">
<path fill-rule="evenodd" clip-rule="evenodd" d="M11 0.5C6.58172 0.5 3 4.08172 3 8.5C3 12.9183 6.58172 16.5 11 16.5H19C23.4183 16.5 27 12.9183 27 8.5C27 4.08172 23.4183 0.5 19 0.5H11ZM11 4.5C8.79086 4.5 7 6.29086 7 8.5C7 10.7091 8.79086 12.5 11 12.5H19C21.2091 12.5 23 10.7091 23 8.5C23 6.29086 21.2091 4.5 19 4.5H11Z" fill="#2B2B2B"/>
<path fill-rule="evenodd" clip-rule="evenodd" d="M41 0.5C36.5817 0.5 33 4.08172 33 8.5C33 12.9183 36.5817 16.5 41 16.5H49C53.4183 16.5 57 12.9183 57 8.5C57 4.08172 53.4183 0.5 49 0.5H41ZM41 4.5C38.7909 4.5 37 6.29086 37 8.5C37 10.7091 38.7909 12.5 41 12.5H49C51.2091 12.5 53 10.7091 53 8.5C53 6.29086 51.2091 4.5 49 4.5H41Z" fill="#2B2B2B"/>
<path fill-rule="evenodd" clip-rule="evenodd" d="M70 0.5C65.5817 0.5 62 4.08172 62 8.5C62 12.9183 65.5817 16.5 70 16.5H78C82.4183 16.5 86 12.9183 86 8.5C86 4.08172 82.4183 0.5 78 0.5H70ZM70 4.5C67.7909 4.5 66 6.29086 66 8.5C66 10.7091 67.7909 12.5 70 12.5H78C80.2091 12.5 82 10.7091 82 8.5C82 6.29086 80.2091 4.5 78 4.5H70Z" fill="#2B2B2B"/>
<path fill-rule="evenodd" clip-rule="evenodd" d="M99 0.5C94.5817 0.5 91 4.08172 91 8.5C91 12.9183 94.5817 16.5 99 16.5H107C111.418 16.5 115 12.9183 115 8.5C115 4.08172 111.418 0.5 107 0.5H99ZM99 4.5C96.7909 4.5 95 6.29086 95 8.5C95 10.7091 96.7909 12.5 99 12.5H107C109.209 12.5 111 10.7091 111 8.5C111 6.29086 109.209 4.5 107 4.5H99Z" fill="#2B2B2B"/>
<path fill-rule="evenodd" clip-rule="evenodd" d="M128 0.5C123.582 0.5 120 4.08172 120 8.5C120 12.9183 123.582 16.5 128 16.5H136C140.418 16.5 144 12.9183 144 8.5C144 4.08172 140.418 0.5 136 0.5H128ZM128 4.5C125.791 4.5 124 6.29086 124 8.5C124 10.7091 125.791 12.5 128 12.5H136C138.209 12.5 140 10.7091 140 8.5C140 6.29086 138.209 4.5 136 4.5H128Z" fill="#2B2B2B"/>
<path fill-rule="evenodd" clip-rule="evenodd" d="M157 0.5C152.582 0.5 149 4.08172 149 8.5C149 12.9183 152.582 16.5 157 16.5H165C169.418 16.5 173 12.9183 173 8.5C173 4.08172 169.418 0.5 165 0.5H157ZM157 4.5C154.791 4.5 153 6.29086 153 8.5C153 10.7091 154.791 12.5 157 12.5H165C167.209 12.5 169 10.7091 169 8.5C169 6.29086 167.209 4.5 165 4.5H157Z" fill="#2B2B2B"/>
<path fill-rule="evenodd" clip-rule="evenodd" d="M186 0.5C181.582 0.5 178 4.08172 178 8.5C178 12.9183 181.582 16.5 186 16.5H194C198.418 16.5 202 12.9183 202 8.5C202 4.08172 198.418 0.5 194 0.5H186ZM186 4.5C183.791 4.5 182 6.29086 182 8.5C182 10.7091 183.791 12.5 186 12.5H194C196.209 12.5 198 10.7091 198 8.5C198 6.29086 196.209 4.5 194 4.5H186Z" fill="#2B2B2B"/>
<path fill-rule="evenodd" clip-rule="evenodd" d="M215 0.5C210.582 0.5 207 4.08172 207 8.5C207 12.9183 210.582 16.5 215 16.5H223C227.418 16.5 231 12.9183 231 8.5C231 4.08172 227.418 0.5 223 0.5H215ZM215 4.5C212.791 4.5 211 6.29086 211 8.5C211 10.7091 212.791 12.5 215 12.5H223C225.209 12.5 227 10.7091 227 8.5C227 6.29086 225.209 4.5 223 4.5H215Z" fill="#2B2B2B"/>
<path fill-rule="evenodd" clip-rule="evenodd" d="M244 0.5C239.582 0.5 236 4.08172 236 8.5C236 12.9183 239.582 16.5 244 16.5H252C256.418 16.5 260 12.9183 260 8.5C260 4.08172 256.418 0.5 252 0.5H244ZM244 4.5C241.791 4.5 240 6.29086 240 8.5C240 10.7091 241.791 12.5 244 12.5H252C254.209 12.5 256 10.7091 256 8.5C256 6.29086 254.209 4.5 252 4.5H244Z" fill="#2B2B2B"/>
<path d="M18 8.5C18 7.39543 18.8954 6.5 20 6.5H40C41.1046 6.5 42 7.39543 42 8.5C42 9.60457 41.1046 10.5 40 10.5H20C18.8954 10.5 18 9.60457 18 8.5Z" fill="#232222"/>
<path d="M47 8.5C47 7.39543 47.8954 6.5 49 6.5H69C70.1046 6.5 71 7.39543 71 8.5C71 9.60457 70.1046 10.5 69 10.5H49C47.8954 10.5 47 9.60457 47 8.5Z" fill="#232222"/>
<path d="M76 8.5C76 7.39543 76.8954 6.5 78 6.5H98C99.1046 6.5 100 7.39543 100 8.5C100 9.60457 99.1046 10.5 98 10.5H78C76.8954 10.5 76 9.60457 76 8.5Z" fill="#232222"/>
<path d="M105 8.5C105 7.39543 105.895 6.5 107 6.5H127C128.105 6.5 129 7.39543 129 8.5C129 9.60457 128.105 10.5 127 10.5H107C105.895 10.5 105 9.60457 105 8.5Z" fill="#232222"/>
<path d="M134 8.5C134 7.39543 134.895 6.5 136 6.5H156C157.105 6.5 158 7.39543 158 8.5C158 9.60457 157.105 10.5 156 10.5H136C134.895 10.5 134 9.60457 134 8.5Z" fill="#232222"/>
<path d="M163 8.5C163 7.39543 163.895 6.5 165 6.5H185C186.105 6.5 187 7.39543 187 8.5C187 9.60457 186.105 10.5 185 10.5H165C163.895 10.5 163 9.60457 163 8.5Z" fill="#232222"/>
<path d="M192 8.5C192 7.39543 192.895 6.5 194 6.5H214C215.105 6.5 216 7.39543 216 8.5C216 9.60457 215.105 10.5 214 10.5H194C192.895 10.5 192 9.60457 192 8.5Z" fill="#232222"/>
<path d="M221 8.5C221 7.39543 221.895 6.5 223 6.5H243C244.105 6.5 245 7.39543 245 8.5C245 9.60457 244.105 10.5 243 10.5H223C221.895 10.5 221 9.60457 221 8.5Z" fill="#232222"/>
<path d="M250 8.5C250 7.39543 250.895 6.5 252 6.5H260C261.105 6.5 262 7.39543 262 8.5V8.5C262 9.60457 261.105 10.5 260 10.5H252C250.895 10.5 250 9.60457 250 8.5Z" fill="#232222"/>
<path d="M12 8.5C12 9.60457 11.1046 10.5 10 10.5L2 10.5C0.89543 10.5 7.82807e-08 9.60457 1.74845e-07 8.5V8.5C2.71409e-07 7.39543 0.895431 6.5 2 6.5L10 6.5C11.1046 6.5 12 7.39543 12 8.5Z" fill="#232222"/>
</svg>
