<svg width="196" height="98" viewBox="0 0 196 98" fill="none" xmlns="http://www.w3.org/2000/svg">
<rect x="2" y="2.5" width="192" height="93" rx="5" fill="#FFE920"/>
<path d="M46.2767 84.1611L26.7624 73.5909C25.0736 72.6761 24.0581 70.875 24.1494 68.9566L24.908 53.0261C25.0237 50.5975 26.8696 48.6041 29.2822 48.3026L49.0355 45.8334C50.7009 45.6252 52.3597 46.2665 53.452 47.5408L62.7183 58.3515C64.0879 59.9493 64.3103 62.2337 63.2748 64.0658L53.0109 82.225C51.6694 84.5984 48.6739 85.4596 46.2767 84.1611Z" fill="#FA1F2E"/>
<path d="M56.1748 41.3457L69.7324 61.032C70.5638 62.2393 71.8831 63.0209 73.3414 63.1701L102.96 66.201C104.764 66.3856 106.526 65.5793 107.566 64.0938L115.94 52.127C117.171 50.3682 117.142 48.0201 115.868 46.2925L98.5321 22.787C97.7422 21.7161 96.558 21.0041 95.2417 20.8089L64.2275 16.2083C61.5636 15.8132 59.0653 17.5989 58.5768 20.2473L55.3757 37.6029C55.1351 38.9071 55.4226 40.2535 56.1748 41.3457Z" fill="#FA1F2E"/>
<path d="M67.8683 71.4445L57.9117 90.1507C56.1391 93.4811 58.5527 97.5 62.3254 97.5H89.5733C91.6373 97.5 93.4893 96.2317 94.2353 94.3072L100.613 77.8551C101.811 74.7645 99.7246 71.3847 96.4248 71.0704L72.7561 68.8162C70.7455 68.6248 68.8172 69.6616 67.8683 71.4445Z" fill="#FA1F2E"/>
<path d="M18.2189 78.6695L4.43668 80.2322C1.90942 80.5188 0 82.657 0 85.2004V92.5C0 95.2614 2.23857 97.5 5 97.5H41.2319C42.7865 97.5 44.1826 96.5478 44.75 95.1004C45.4593 93.2909 44.6805 91.2385 42.9493 90.3552L21.0546 79.1839C20.1804 78.7379 19.1941 78.559 18.2189 78.6695Z" fill="#FA1F2E"/>
<path d="M13.0555 72.9779L5.57903 73.8495C2.60827 74.1959 0 71.8741 0 68.8832V37.6592C0 33.1923 5.41129 30.9671 8.55362 34.1418L18.3192 44.0081C19.3822 45.082 19.9025 46.579 19.7347 48.0807L17.4455 68.5668C17.1871 70.8796 15.3671 72.7084 13.0555 72.9779Z" fill="#FA1F2E"/>
<path d="M46.0758 39.0613L28.4981 42.0549C26.8634 42.3333 25.197 41.783 24.0494 40.586L1.39068 16.9506C0.49825 16.0197 0 14.78 0 13.4904V5.5C0 2.73857 2.23858 0.5 5 0.5H51.7375C54.9456 0.5 57.3237 3.47856 56.6133 6.60711L50.1122 35.2394C49.6642 37.2128 48.0707 38.7216 46.0758 39.0613Z" fill="#FA1F2E"/>
<path d="M145.905 12.763L116.833 22.1578C113.821 23.1311 112.46 26.6227 114.018 29.3776L123.213 45.6294C123.943 46.9205 125.209 47.8207 126.669 48.0865L148.056 51.9812C149.818 52.3021 151.617 51.656 152.772 50.2873L161.772 39.6257C163.113 38.0373 163.331 35.785 162.32 33.9687L151.811 15.089C150.65 13.0031 148.176 12.029 145.905 12.763Z" fill="#FA1F2E"/>
<path d="M155.775 56.6386L170.415 41.3971C171.555 40.2095 173.208 39.6597 174.832 39.927L191.812 42.7201C194.227 43.1175 196 45.2056 196 47.6538V72.6037C196 75.0813 194.186 77.1852 191.735 77.5494L163.199 81.79C160.534 82.186 158.034 80.3993 157.546 77.7497L154.464 61.0075C154.173 59.4251 154.661 57.7991 155.775 56.6386Z" fill="#FA1F2E"/>
<path d="M168.077 26.9818L157.905 7.84684C156.135 4.51654 158.549 0.5 162.32 0.5H191C193.761 0.5 196 2.73858 196 5.5V29.8846C196 33.2025 192.828 35.6002 189.636 34.6948L171.127 29.4452C169.817 29.0737 168.716 28.184 168.077 26.9818Z" fill="#FA1F2E"/>
<path d="M103.663 18.2846L68.1074 11.8335C65.7291 11.402 64 9.33091 64 6.91378V5.5C64 2.73858 66.2386 0.5 69 0.5H140.352C141.827 0.5 143.147 1.41398 143.667 2.79442C144.389 4.71127 143.339 6.83882 141.379 7.43272L106.006 18.1501C105.247 18.3801 104.444 18.4262 103.663 18.2846Z" fill="#FA1F2E"/>
<path d="M120.66 58.3408C117.052 64.8508 108.098 81.009 102.9 90.4143C101.102 93.6682 103.376 97.5 107.094 97.5H141.164C143.113 97.5 144.885 96.3669 145.703 94.5971L150.345 84.5485C150.772 83.6258 150.907 82.5952 150.732 81.5939L147.232 61.4859C146.844 59.2585 145.01 57.5684 142.758 57.3639L125.479 55.7947C123.507 55.6156 121.62 56.6084 120.66 58.3408Z" fill="#FA1F2E"/>
<path d="M190.293 83.3156L160.933 87.5113C159.406 87.7295 158.06 88.6489 157.295 89.9881C155.389 93.3213 157.778 97.5 161.618 97.5H191C193.761 97.5 196 95.2614 196 92.5V88.2653C196 85.2225 193.305 82.8851 190.293 83.3156Z" fill="#FA1F2E"/>
</svg>
