<svg width="190" height="84" viewBox="0 0 190 84" fill="none" xmlns="http://www.w3.org/2000/svg">
<path d="M14 14.5H84L53.9345 63.6738C52.0069 66.8264 47.4434 66.871 45.4546 63.7566L14 14.5Z" fill="#FA1F2E"/>
<path d="M104 14.5H174L143.935 63.6738C142.007 66.8264 137.443 66.871 135.455 63.7566L104 14.5Z" fill="#FA1F2E"/>
<path d="M49 14.5H141L100.172 81.1855C98.244 84.3348 93.6848 84.3794 91.6955 81.2684L49 14.5Z" fill="#FF4136"/>
<path d="M0 7.5C0 3.63401 3.13401 0.5 7 0.5H183C186.866 0.5 190 3.63401 190 7.5C190 11.366 186.866 14.5 183 14.5H155V28.5C155 32.366 151.866 35.5 148 35.5C144.134 35.5 141 32.366 141 28.5V14.5H132V20.5C132 24.366 128.866 27.5 125 27.5C121.134 27.5 118 24.366 118 20.5V14.5H7C3.13401 14.5 0 11.366 0 7.5Z" fill="#FFE920"/>
</svg>
