<svg width="278" height="47" viewBox="0 0 278 47" fill="none" xmlns="http://www.w3.org/2000/svg">
<path d="M0 5.5C0 2.73858 2.23858 0.5 5 0.5H61C63.7614 0.5 66 2.73858 66 5.5V41.5C66 44.2614 63.7614 46.5 61 46.5H5C2.23858 46.5 0 44.2614 0 41.5V5.5Z" fill="#3B3B3B"/>
<path d="M72 5.5C72 2.73858 74.2386 0.5 77 0.5H131C133.761 0.5 136 2.73858 136 5.5V41.5C136 44.2614 133.761 46.5 131 46.5H77C74.2386 46.5 72 44.2614 72 41.5V5.5Z" fill="#3B3B3B"/>
<path d="M142 5.5C142 2.73858 144.239 0.5 147 0.5H201C203.761 0.5 206 2.73858 206 5.5V41.5C206 44.2614 203.761 46.5 201 46.5H147C144.239 46.5 142 44.2614 142 41.5V5.5Z" fill="#3B3B3B"/>
<path d="M212 5.5C212 2.73858 214.239 0.5 217 0.5H273C275.761 0.5 278 2.73858 278 5.5V41.5C278 44.2614 275.761 46.5 273 46.5H217C214.239 46.5 212 44.2614 212 41.5V5.5Z" fill="#3B3B3B"/>
<path fill-rule="evenodd" clip-rule="evenodd" d="M66 41.5V5.5H72V41.5H66Z" fill="#323232"/>
<path fill-rule="evenodd" clip-rule="evenodd" d="M136 41.5V5.5H142V41.5H136Z" fill="#323232"/>
<path fill-rule="evenodd" clip-rule="evenodd" d="M206 41.5V5.5H212V41.5H206Z" fill="#323232"/>
</svg>
