<svg width="952" height="1696" viewBox="0 0 952 1696" fill="none" xmlns="http://www.w3.org/2000/svg">
<g clip-path="url(#clip0_6090_2361)">
<rect width="952" height="1696" fill="#350100"/>
<path d="M142.352 89.2615L0 0V1696L151.585 1617.53C158.429 1613.98 158.862 1604.36 152.365 1600.21L26.2511 1519.8C23.8518 1518.27 23.2113 1515.05 24.8427 1512.72L118.847 1378.37C121.28 1374.89 121.253 1370.26 118.779 1366.81L25.4392 1236.7C23.589 1234.12 24.5789 1230.49 27.4826 1229.21L134.582 1181.93C143.814 1177.86 141.883 1164.23 131.883 1162.87L31.4214 1149.29C27.4022 1148.75 25.6681 1143.9 28.4319 1140.93L117.714 1045.05C120.782 1041.75 121.27 1036.81 118.905 1032.98L23.3031 878.07C22.3992 876.605 22.3121 874.778 23.0726 873.234L137.331 641.257C139.013 637.843 138.611 633.771 136.294 630.751L25.2656 486.044C23.4463 483.673 24.0997 480.246 26.6637 478.711L114.591 426.057C119.226 423.281 120.819 417.326 118.188 412.608L46.0323 283.182C44.8966 281.145 45.3202 278.593 47.0533 277.032L124.616 207.173C130.846 201.561 127.818 191.234 119.544 189.875L55.9228 179.426C51.5385 178.706 50.2011 173.052 53.7981 170.444L142.91 105.829C148.647 101.669 148.356 93.0263 142.352 89.2615Z" fill="#430100"/>
<path d="M809.648 1606.74L952 1696V0L800.415 78.4729C793.571 82.0157 793.138 91.6418 799.635 95.7852L925.749 176.202C928.148 177.732 928.789 180.953 927.157 183.284L833.153 317.63C830.72 321.108 830.747 325.743 833.221 329.192L926.561 459.3C928.411 461.879 927.421 465.507 924.517 466.789L817.418 514.068C808.186 518.143 810.117 531.774 820.117 533.126L920.579 546.706C924.598 547.25 926.332 552.1 923.568 555.068L834.286 650.953C831.218 654.249 830.73 659.188 833.095 663.02L928.697 817.93C929.601 819.395 929.688 821.222 928.927 822.766L814.669 1054.74C812.987 1058.16 813.389 1062.23 815.706 1065.25L926.734 1209.96C928.554 1212.33 927.9 1215.75 925.336 1217.29L837.409 1269.94C832.774 1272.72 831.181 1278.67 833.812 1283.39L905.968 1412.82C907.103 1414.86 906.68 1417.41 904.947 1418.97L827.384 1488.83C821.154 1494.44 824.182 1504.77 832.456 1506.13L896.077 1516.57C900.461 1517.29 901.799 1522.95 898.202 1525.56L809.09 1590.17C803.353 1594.33 803.644 1602.97 809.648 1606.74Z" fill="#430100"/>
<path fill-rule="evenodd" clip-rule="evenodd" d="M317 32.8379C317 19.5831 306.255 8.83789 293 8.83789C279.745 8.83789 269 19.5831 269 32.8379L269 55.5455C269 68.8003 279.745 79.5455 293 79.5455C306.255 79.5455 317 68.8003 317 55.5455L317 32.8379ZM305 32.6225C305 25.9951 299.627 20.6225 293 20.6225C286.373 20.6225 281 25.9951 281 32.6225L281 55.7609C281 62.3883 286.373 67.7609 293 67.7609C299.627 67.7609 305 62.3883 305 55.7609L305 32.6225Z" fill="#310100"/>
<path fill-rule="evenodd" clip-rule="evenodd" d="M317 121.223C317 107.968 306.255 97.2227 293 97.2227C279.745 97.2227 269 107.968 269 121.223L269 143.93C269 157.185 279.745 167.93 293 167.93C306.255 167.93 317 157.185 317 143.93L317 121.223ZM305 121.007C305 114.38 299.627 109.007 293 109.007C286.373 109.007 281 114.38 281 121.007L281 144.146C281 150.773 286.373 156.146 293 156.146C299.627 156.146 305 150.773 305 144.146L305 121.007Z" fill="#310100"/>
<path fill-rule="evenodd" clip-rule="evenodd" d="M317 206.662C317 193.407 306.255 182.662 293 182.662C279.745 182.662 269 193.407 269 206.662L269 229.37C269 242.625 279.745 253.37 293 253.37C306.255 253.37 317 242.625 317 229.37L317 206.662ZM305 206.447C305 199.819 299.627 194.447 293 194.447C286.373 194.447 281 199.819 281 206.447L281 229.585C281 236.213 286.373 241.585 293 241.585C299.627 241.585 305 236.213 305 229.585L305 206.447Z" fill="#310100"/>
<path fill-rule="evenodd" clip-rule="evenodd" d="M317 496.365C317 483.11 306.255 472.365 293 472.365C279.745 472.365 269 483.11 269 496.365L269 519.073C269 532.328 279.745 543.073 293 543.073C306.255 543.073 317 532.328 317 519.073L317 496.365ZM305 496.15C305 489.522 299.627 484.15 293 484.15C286.373 484.15 281 489.522 281 496.15L281 519.288C281 525.916 286.373 531.288 293 531.288C299.627 531.288 305 525.916 305 519.288L305 496.15Z" fill="#310100"/>
<path fill-rule="evenodd" clip-rule="evenodd" d="M317 581.805C317 568.55 306.255 557.805 293 557.805C279.745 557.805 269 568.55 269 581.805L269 604.512C269 617.767 279.745 628.512 293 628.512C306.255 628.512 317 617.767 317 604.512L317 581.805ZM305 581.589C305 574.962 299.627 569.589 293 569.589C286.373 569.589 281 574.962 281 581.589L281 604.728C281 611.355 286.373 616.728 293 616.728C299.627 616.728 305 611.355 305 604.728L305 581.589Z" fill="#310100"/>
<path fill-rule="evenodd" clip-rule="evenodd" d="M317 667.242C317 653.987 306.255 643.242 293 643.242C279.745 643.242 269 653.987 269 667.242L269 689.95C269 703.205 279.745 713.95 293 713.95C306.255 713.95 317 703.205 317 689.95L317 667.242ZM305 667.027C305 660.399 299.627 655.027 293 655.027C286.373 655.027 281 660.399 281 667.027L281 690.165C281 696.793 286.373 702.165 293 702.165C299.627 702.165 305 696.793 305 690.165L305 667.027Z" fill="#310100"/>
<path fill-rule="evenodd" clip-rule="evenodd" d="M317 752.682C317 739.427 306.255 728.682 293 728.682C279.745 728.682 269 739.427 269 752.682L269 775.389C269 788.644 279.745 799.389 293 799.389C306.255 799.389 317 788.644 317 775.389L317 752.682ZM305 752.466C305 745.839 299.627 740.466 293 740.466C286.373 740.466 281 745.839 281 752.466L281 775.605C281 782.232 286.373 787.605 293 787.605C299.627 787.605 305 782.232 305 775.605L305 752.466Z" fill="#310100"/>
<rect x="299" y="53.0312" width="70.7076" height="12" rx="6" transform="rotate(90 299 53.0312)" fill="#310100"/>
<rect x="299" y="138.469" width="70.7076" height="12" rx="6" transform="rotate(90 299 138.469)" fill="#310100"/>
<rect x="299" y="223.908" width="70.7076" height="12" rx="6" transform="rotate(90 299 223.908)" fill="#310100"/>
<rect x="299" y="428.174" width="70.7076" height="12" rx="6" transform="rotate(90 299 428.174)" fill="#310100"/>
<rect x="299" y="513.611" width="70.7076" height="12" rx="6" transform="rotate(90 299 513.611)" fill="#310100"/>
<rect x="299" y="599.051" width="70.7076" height="12" rx="6" transform="rotate(90 299 599.051)" fill="#310100"/>
<rect x="299" y="684.488" width="70.7076" height="12" rx="6" transform="rotate(90 299 684.488)" fill="#310100"/>
<path d="M293 769.928C296.314 769.928 299 772.614 299 775.928L299 805.282L287 805.282L287 775.928C287 772.614 289.686 769.928 293 769.928V769.928Z" fill="#310100"/>
<path d="M293 35.3535C289.686 35.3535 287 32.6672 287 29.3535L287 -0.000273705L299 -0.00027215L299 29.3535C299 32.6672 296.314 35.3535 293 35.3535V35.3535Z" fill="#310100"/>
<path fill-rule="evenodd" clip-rule="evenodd" d="M224 332.082C224 295.996 251.702 266.38 287 263.339L287 263.19L289.112 263.19C290.399 263.118 291.695 263.082 293 263.082C294.305 263.082 295.601 263.118 296.888 263.19L299 263.19L299 263.339C334.298 266.38 362 295.996 362 332.082L362 431.12L366 431.12C368.761 431.12 371 433.359 371 436.12L371 455.582C371 458.343 368.761 460.582 366 460.582L219 460.582C216.239 460.582 214 458.343 214 455.582L214 436.12C214 433.359 216.239 431.12 219 431.12L224 431.12L224 332.082ZM267 301.082C267 288.788 275.533 278.486 287 275.778L287 325.933L267 325.933L267 301.082ZM267 337.933L287 337.933L287 431.013L267 431.013L267 337.933ZM299 337.933L299 431.013L319 431.013L319 337.933L299 337.933ZM299 275.778L299 325.933L319 325.933L319 301.082C319 288.788 310.467 278.486 299 275.778ZM236.328 325.933C237.995 310.392 245.908 296.72 257.508 287.478C255.888 291.702 255 296.288 255 301.082L255 325.933L236.328 325.933ZM236 337.933L236 431.013L255 431.013L255 337.933L236 337.933ZM331 337.933L331 431.013L350 431.013L350 337.933L331 337.933ZM349.672 325.933L331 325.933L331 301.082C331 296.288 330.112 291.702 328.492 287.478C340.092 296.72 348.005 310.392 349.672 325.933Z" fill="#310100"/>
<path fill-rule="evenodd" clip-rule="evenodd" d="M317 838.119C317 824.864 306.255 814.119 293 814.119C279.745 814.119 269 824.864 269 838.119L269 860.827C269 874.082 279.745 884.827 293 884.827C306.255 884.827 317 874.082 317 860.827L317 838.119ZM305 837.904C305 831.276 299.627 825.904 293 825.904C286.373 825.904 281 831.276 281 837.904L281 861.042C281 867.67 286.373 873.042 293 873.042C299.627 873.042 305 867.67 305 861.042L305 837.904Z" fill="#310100"/>
<path fill-rule="evenodd" clip-rule="evenodd" d="M317 926.504C317 913.249 306.255 902.504 293 902.504C279.745 902.504 269 913.249 269 926.504L269 949.211C269 962.466 279.745 973.211 293 973.211C306.255 973.211 317 962.466 317 949.211L317 926.504ZM305 926.289C305 919.661 299.627 914.289 293 914.289C286.373 914.289 281 919.661 281 926.288L281 949.427C281 956.054 286.373 961.427 293 961.427C299.627 961.427 305 956.054 305 949.427L305 926.289Z" fill="#310100"/>
<path fill-rule="evenodd" clip-rule="evenodd" d="M317 1011.94C317 998.689 306.255 987.943 293 987.943C279.745 987.943 269 998.689 269 1011.94L269 1034.65C269 1047.91 279.745 1058.65 293 1058.65C306.255 1058.65 317 1047.91 317 1034.65L317 1011.94ZM305 1011.73C305 1005.1 299.627 999.728 293 999.728C286.373 999.728 281 1005.1 281 1011.73L281 1034.87C281 1041.49 286.373 1046.87 293 1046.87C299.627 1046.87 305 1041.49 305 1034.87L305 1011.73Z" fill="#310100"/>
<path fill-rule="evenodd" clip-rule="evenodd" d="M317 1301.65C317 1288.39 306.255 1277.65 293 1277.65C279.745 1277.65 269 1288.39 269 1301.65L269 1324.35C269 1337.61 279.745 1348.35 293 1348.35C306.255 1348.35 317 1337.61 317 1324.35L317 1301.65ZM305 1301.43C305 1294.8 299.627 1289.43 293 1289.43C286.373 1289.43 281 1294.8 281 1301.43L281 1324.57C281 1331.2 286.373 1336.57 293 1336.57C299.627 1336.57 305 1331.2 305 1324.57L305 1301.43Z" fill="#310100"/>
<path fill-rule="evenodd" clip-rule="evenodd" d="M317 1387.09C317 1373.83 306.255 1363.09 293 1363.09C279.745 1363.09 269 1373.83 269 1387.09L269 1409.79C269 1423.05 279.745 1433.79 293 1433.79C306.255 1433.79 317 1423.05 317 1409.79L317 1387.09ZM305 1386.87C305 1380.24 299.627 1374.87 293 1374.87C286.373 1374.87 281 1380.24 281 1386.87L281 1410.01C281 1416.64 286.373 1422.01 293 1422.01C299.627 1422.01 305 1416.64 305 1410.01L305 1386.87Z" fill="#310100"/>
<path fill-rule="evenodd" clip-rule="evenodd" d="M317 1472.52C317 1459.27 306.255 1448.52 293 1448.52C279.745 1448.52 269 1459.27 269 1472.52L269 1495.23C269 1508.49 279.745 1519.23 293 1519.23C306.255 1519.23 317 1508.49 317 1495.23L317 1472.52ZM305 1472.31C305 1465.68 299.627 1460.31 293 1460.31C286.373 1460.31 281 1465.68 281 1472.31L281 1495.45C281 1502.07 286.373 1507.45 293 1507.45C299.627 1507.45 305 1502.07 305 1495.45L305 1472.31Z" fill="#310100"/>
<path fill-rule="evenodd" clip-rule="evenodd" d="M317 1557.96C317 1544.71 306.255 1533.96 293 1533.96C279.745 1533.96 269 1544.71 269 1557.96L269 1580.67C269 1593.92 279.745 1604.67 293 1604.67C306.255 1604.67 317 1593.92 317 1580.67L317 1557.96ZM305 1557.75C305 1551.12 299.627 1545.75 293 1545.75C286.373 1545.75 281 1551.12 281 1557.75L281 1580.88C281 1587.51 286.373 1592.88 293 1592.88C299.627 1592.88 305 1587.51 305 1580.88L305 1557.75Z" fill="#310100"/>
<path fill-rule="evenodd" clip-rule="evenodd" d="M317 1643.4C317 1630.15 306.255 1619.4 293 1619.4C279.745 1619.4 269 1630.15 269 1643.4L269 1666.11C269 1679.36 279.745 1690.11 293 1690.11C306.255 1690.11 317 1679.36 317 1666.11L317 1643.4ZM305 1643.19C305 1636.56 299.627 1631.19 293 1631.19C286.373 1631.19 281 1636.56 281 1643.19L281 1666.32C281 1672.95 286.373 1678.32 293 1678.32C299.627 1678.32 305 1672.95 305 1666.32L305 1643.19Z" fill="#310100"/>
<rect x="299" y="858.312" width="70.7076" height="12" rx="6" transform="rotate(90 299 858.312)" fill="#310100"/>
<rect x="299" y="943.75" width="70.7076" height="12" rx="6" transform="rotate(90 299 943.75)" fill="#310100"/>
<rect x="299" y="1029.19" width="70.7076" height="12" rx="6" transform="rotate(90 299 1029.19)" fill="#310100"/>
<rect x="299" y="1233.46" width="70.7076" height="12" rx="6" transform="rotate(90 299 1233.46)" fill="#310100"/>
<rect x="299" y="1318.89" width="70.7076" height="12" rx="6" transform="rotate(90 299 1318.89)" fill="#310100"/>
<rect x="299" y="1404.33" width="70.7076" height="12" rx="6" transform="rotate(90 299 1404.33)" fill="#310100"/>
<rect x="299" y="1489.77" width="70.7076" height="12" rx="6" transform="rotate(90 299 1489.77)" fill="#310100"/>
<rect x="299" y="1575.21" width="70.7076" height="12" rx="6" transform="rotate(90 299 1575.21)" fill="#310100"/>
<path d="M293 1575.21C296.314 1575.21 299 1577.89 299 1581.21L299 1610.56L287 1610.56L287 1581.21C287 1577.89 289.686 1575.21 293 1575.21V1575.21Z" fill="#310100"/>
<path d="M293 1660.65C296.314 1660.65 299 1663.33 299 1666.65L299 1696L287 1696L287 1666.65C287 1663.33 289.686 1660.65 293 1660.65V1660.65Z" fill="#310100"/>
<path d="M293 840.635C289.686 840.635 287 837.948 287 834.635L287 805.281L299 805.281L299 834.635C299 837.948 296.314 840.635 293 840.635V840.635Z" fill="#310100"/>
<path fill-rule="evenodd" clip-rule="evenodd" d="M224 1137.36C224 1101.28 251.702 1071.66 287 1068.62L287 1068.47L289.112 1068.47C290.399 1068.4 291.695 1068.36 293 1068.36C294.305 1068.36 295.601 1068.4 296.888 1068.47L299 1068.47L299 1068.62C334.298 1071.66 362 1101.28 362 1137.36L362 1236.4L366 1236.4C368.761 1236.4 371 1238.64 371 1241.4L371 1260.86C371 1263.62 368.761 1265.86 366 1265.86L219 1265.86C216.239 1265.86 214 1263.62 214 1260.86L214 1241.4C214 1238.64 216.239 1236.4 219 1236.4L224 1236.4L224 1137.36ZM267 1106.36C267 1094.07 275.533 1083.77 287 1081.06L287 1131.21L267 1131.21L267 1106.36ZM267 1143.21L287 1143.21L287 1236.29L267 1236.29L267 1143.21ZM299 1143.21L299 1236.29L319 1236.29L319 1143.21L299 1143.21ZM299 1081.06L299 1131.21L319 1131.21L319 1106.36C319 1094.07 310.467 1083.77 299 1081.06ZM236.328 1131.21C237.995 1115.67 245.908 1102 257.508 1092.76C255.888 1096.98 255 1101.57 255 1106.36L255 1131.21L236.328 1131.21ZM236 1143.21L236 1236.29L255 1236.29L255 1143.21L236 1143.21ZM331 1143.21L331 1236.29L350 1236.29L350 1143.21L331 1143.21ZM349.672 1131.21L331 1131.21L331 1106.36C331 1101.57 330.112 1096.98 328.492 1092.76C340.092 1102 348.005 1115.67 349.672 1131.21Z" fill="#310100"/>
<path fill-rule="evenodd" clip-rule="evenodd" d="M590 863.371C590 827.285 617.702 797.669 653 794.628L653 794.479L655.112 794.479C656.399 794.407 657.695 794.371 659 794.371C660.305 794.371 661.601 794.407 662.888 794.479L665 794.479L665 794.628C700.298 797.669 728 827.285 728 863.371L728 962.409L732 962.409C734.761 962.409 737 964.648 737 967.409L737 986.871C737 989.632 734.761 991.871 732 991.871L585 991.871C582.239 991.871 580 989.632 580 986.871L580 967.409C580 964.648 582.239 962.409 585 962.409L590 962.409L590 863.371ZM633 832.371C633 820.077 641.533 809.775 653 807.067L653 857.222L633 857.222L633 832.371ZM633 869.222L653 869.222L653 962.302L633 962.302L633 869.222ZM665 869.222L665 962.302L685 962.302L685 869.222L665 869.222ZM665 807.067L665 857.222L685 857.222L685 832.371C685 820.077 676.467 809.775 665 807.067ZM602.328 857.222C603.995 841.681 611.908 828.009 623.508 818.767C621.888 822.991 621 827.577 621 832.371L621 857.222L602.328 857.222ZM602 869.222L602 962.302L621 962.302L621 869.222L602 869.222ZM697 869.222L697 962.302L716 962.302L716 869.222L697 869.222ZM715.672 857.222L697 857.222L697 832.371C697 827.577 696.112 822.991 694.492 818.767C706.092 828.009 714.005 841.681 715.672 857.222Z" fill="#310100"/>
<path fill-rule="evenodd" clip-rule="evenodd" d="M683 32.8379C683 19.5831 672.255 8.83789 659 8.83789C645.745 8.83789 635 19.5831 635 32.8379L635 55.5455C635 68.8003 645.745 79.5455 659 79.5455C672.255 79.5455 683 68.8003 683 55.5455L683 32.8379ZM671 32.6225C671 25.9951 665.627 20.6225 659 20.6225C652.373 20.6225 647 25.9951 647 32.6225L647 55.7609C647 62.3883 652.373 67.7609 659 67.7609C665.627 67.7609 671 62.3883 671 55.7609L671 32.6225Z" fill="#310100"/>
<path fill-rule="evenodd" clip-rule="evenodd" d="M683 121.223C683 107.968 672.255 97.2227 659 97.2227C645.745 97.2227 635 107.968 635 121.223L635 143.93C635 157.185 645.745 167.93 659 167.93C672.255 167.93 683 157.185 683 143.93L683 121.223ZM671 121.007C671 114.38 665.627 109.007 659 109.007C652.373 109.007 647 114.38 647 121.007L647 144.146C647 150.773 652.373 156.146 659 156.146C665.627 156.146 671 150.773 671 144.146L671 121.007Z" fill="#310100"/>
<path fill-rule="evenodd" clip-rule="evenodd" d="M683 206.662C683 193.407 672.255 182.662 659 182.662C645.745 182.662 635 193.407 635 206.662L635 229.37C635 242.625 645.745 253.37 659 253.37C672.255 253.37 683 242.625 683 229.37L683 206.662ZM671 206.447C671 199.819 665.627 194.447 659 194.447C652.373 194.447 647 199.819 647 206.447L647 229.585C647 236.213 652.373 241.585 659 241.585C665.627 241.585 671 236.213 671 229.585L671 206.447Z" fill="#310100"/>
<path fill-rule="evenodd" clip-rule="evenodd" d="M683 292.1C683 278.845 672.255 268.1 659 268.1C645.745 268.1 635 278.845 635 292.1L635 314.807C635 328.062 645.745 338.807 659 338.807C672.255 338.807 683 328.062 683 314.807L683 292.1ZM671 291.884C671 285.257 665.627 279.884 659 279.884C652.373 279.884 647 285.257 647 291.884L647 315.023C647 321.65 652.373 327.023 659 327.023C665.627 327.023 671 321.65 671 315.023L671 291.884Z" fill="#310100"/>
<path fill-rule="evenodd" clip-rule="evenodd" d="M683 377.537C683 364.282 672.255 353.537 659 353.537C645.745 353.537 635 364.282 635 377.537L635 400.245C635 413.5 645.745 424.245 659 424.245C672.255 424.245 683 413.5 683 400.245L683 377.537ZM671 377.322C671 370.694 665.627 365.322 659 365.322C652.373 365.322 647 370.694 647 377.322L647 400.46C647 407.088 652.373 412.46 659 412.46C665.627 412.46 671 407.088 671 400.46L671 377.322Z" fill="#310100"/>
<path fill-rule="evenodd" clip-rule="evenodd" d="M683 462.977C683 449.722 672.255 438.977 659 438.977C645.745 438.977 635 449.722 635 462.977L635 485.684C635 498.939 645.745 509.684 659 509.684C672.255 509.684 683 498.939 683 485.684L683 462.977ZM671 462.761C671 456.134 665.627 450.761 659 450.761C652.373 450.761 647 456.134 647 462.761L647 485.9C647 492.527 652.373 497.9 659 497.9C665.627 497.9 671 492.527 671 485.9L671 462.761Z" fill="#310100"/>
<path fill-rule="evenodd" clip-rule="evenodd" d="M683 548.414C683 535.159 672.255 524.414 659 524.414C645.745 524.414 635 535.159 635 548.414L635 571.122C635 584.376 645.745 595.122 659 595.122C672.255 595.122 683 584.376 683 571.122L683 548.414ZM671 548.199C671 541.571 665.627 536.199 659 536.199C652.373 536.199 647 541.571 647 548.199L647 571.337C647 577.965 652.373 583.337 659 583.337C665.627 583.337 671 577.965 671 571.337L671 548.199Z" fill="#310100"/>
<rect x="665" y="53.0312" width="70.7076" height="12" rx="6" transform="rotate(90 665 53.0312)" fill="#310100"/>
<rect x="665" y="138.469" width="70.7076" height="12" rx="6" transform="rotate(90 665 138.469)" fill="#310100"/>
<rect x="665" y="223.908" width="70.7076" height="12" rx="6" transform="rotate(90 665 223.908)" fill="#310100"/>
<rect x="665" y="309.346" width="70.7076" height="12" rx="6" transform="rotate(90 665 309.346)" fill="#310100"/>
<rect x="665" y="394.783" width="70.7076" height="12" rx="6" transform="rotate(90 665 394.783)" fill="#310100"/>
<rect x="665" y="480.223" width="70.7076" height="12" rx="6" transform="rotate(90 665 480.223)" fill="#310100"/>
<path d="M659 565.66C662.314 565.66 665 568.346 665 571.66L665 601.014L653 601.014L653 571.66C653 568.346 655.686 565.66 659 565.66V565.66Z" fill="#310100"/>
<path d="M659 35.3535C655.686 35.3535 653 32.6672 653 29.3535L653 -0.000273705L665 -0.000272159L665 29.3535C665 32.6672 662.314 35.3535 659 35.3535V35.3535Z" fill="#310100"/>
<path fill-rule="evenodd" clip-rule="evenodd" d="M683 633.852C683 620.597 672.255 609.852 659 609.852C645.745 609.852 635 620.597 635 633.852L635 656.559C635 669.814 645.745 680.559 659 680.559C672.255 680.559 683 669.814 683 656.559L683 633.852ZM671 633.636C671 627.009 665.627 621.636 659 621.636C652.373 621.636 647 627.009 647 633.636L647 656.775C647 663.402 652.373 668.775 659 668.775C665.627 668.775 671 663.402 671 656.775L671 633.636Z" fill="#310100"/>
<path fill-rule="evenodd" clip-rule="evenodd" d="M683 722.236C683 708.981 672.255 698.236 659 698.236C645.745 698.236 635 708.982 635 722.236L635 744.944C635 758.199 645.745 768.944 659 768.944C672.255 768.944 683 758.199 683 744.944L683 722.236ZM671 722.021C671 715.394 665.627 710.021 659 710.021C652.373 710.021 647 715.393 647 722.021L647 745.159C647 751.787 652.373 757.159 659 757.159C665.627 757.159 671 751.787 671 745.159L671 722.021Z" fill="#310100"/>
<path fill-rule="evenodd" clip-rule="evenodd" d="M683 1301.65C683 1288.39 672.255 1277.65 659 1277.65C645.745 1277.65 635 1288.39 635 1301.65L635 1324.35C635 1337.61 645.745 1348.35 659 1348.35C672.255 1348.35 683 1337.61 683 1324.35L683 1301.65ZM671 1301.43C671 1294.8 665.627 1289.43 659 1289.43C652.373 1289.43 647 1294.8 647 1301.43L647 1324.57C647 1331.2 652.373 1336.57 659 1336.57C665.627 1336.57 671 1331.2 671 1324.57L671 1301.43Z" fill="#310100"/>
<path fill-rule="evenodd" clip-rule="evenodd" d="M683 1130.77C683 1117.51 672.255 1106.77 659 1106.77C645.745 1106.77 635 1117.51 635 1130.77L635 1153.48C635 1166.73 645.745 1177.48 659 1177.48C672.255 1177.48 683 1166.73 683 1153.48L683 1130.77ZM671 1130.55C671 1123.93 665.627 1118.55 659 1118.55C652.373 1118.55 647 1123.93 647 1130.55L647 1153.69C647 1160.32 652.373 1165.69 659 1165.69C665.627 1165.69 671 1160.32 671 1153.69L671 1130.55Z" fill="#310100"/>
<path fill-rule="evenodd" clip-rule="evenodd" d="M683 1045.33C683 1032.08 672.255 1021.33 659 1021.33C645.745 1021.33 635 1032.08 635 1045.33L635 1068.04C635 1081.29 645.745 1092.04 659 1092.04C672.255 1092.04 683 1081.29 683 1068.04L683 1045.33ZM671 1045.11C671 1038.49 665.627 1033.11 659 1033.11C652.373 1033.11 647 1038.49 647 1045.11L647 1068.25C647 1074.88 652.373 1080.25 659 1080.25C665.627 1080.25 671 1074.88 671 1068.25L671 1045.11Z" fill="#310100"/>
<path fill-rule="evenodd" clip-rule="evenodd" d="M683 1387.08C683 1373.83 672.255 1363.08 659 1363.08C645.745 1363.08 635 1373.83 635 1387.08L635 1409.79C635 1423.05 645.745 1433.79 659 1433.79C672.255 1433.79 683 1423.05 683 1409.79L683 1387.08ZM671 1386.87C671 1380.24 665.627 1374.87 659 1374.87C652.373 1374.87 647 1380.24 647 1386.87L647 1410.01C647 1416.63 652.373 1422.01 659 1422.01C665.627 1422.01 671 1416.63 671 1410.01L671 1386.87Z" fill="#310100"/>
<path fill-rule="evenodd" clip-rule="evenodd" d="M683 1216.21C683 1202.95 672.255 1192.21 659 1192.21C645.745 1192.21 635 1202.95 635 1216.21L635 1238.91C635 1252.17 645.745 1262.91 659 1262.91C672.255 1262.91 683 1252.17 683 1238.91L683 1216.21ZM671 1215.99C671 1209.36 665.627 1203.99 659 1203.99C652.373 1203.99 647 1209.36 647 1215.99L647 1239.13C647 1245.76 652.373 1251.13 659 1251.13C665.627 1251.13 671 1245.76 671 1239.13L671 1215.99Z" fill="#310100"/>
<path fill-rule="evenodd" clip-rule="evenodd" d="M683 1130.77C683 1117.51 672.255 1106.77 659 1106.77C645.745 1106.77 635 1117.51 635 1130.77L635 1153.48C635 1166.73 645.745 1177.48 659 1177.48C672.255 1177.48 683 1166.73 683 1153.48L683 1130.77ZM671 1130.55C671 1123.93 665.627 1118.55 659 1118.55C652.373 1118.55 647 1123.93 647 1130.55L647 1153.69C647 1160.32 652.373 1165.69 659 1165.69C665.627 1165.69 671 1160.32 671 1153.69L671 1130.55Z" fill="#310100"/>
<path fill-rule="evenodd" clip-rule="evenodd" d="M683 1472.52C683 1459.27 672.255 1448.52 659 1448.52C645.745 1448.52 635 1459.27 635 1472.52L635 1495.23C635 1508.48 645.745 1519.23 659 1519.23C672.255 1519.23 683 1508.48 683 1495.23L683 1472.52ZM671 1472.31C671 1465.68 665.627 1460.31 659 1460.31C652.373 1460.31 647 1465.68 647 1472.31L647 1495.45C647 1502.07 652.373 1507.45 659 1507.45C665.627 1507.45 671 1502.07 671 1495.45L671 1472.31Z" fill="#310100"/>
<path fill-rule="evenodd" clip-rule="evenodd" d="M683 1557.96C683 1544.71 672.255 1533.96 659 1533.96C645.745 1533.96 635 1544.71 635 1557.96L635 1580.67C635 1593.92 645.745 1604.67 659 1604.67C672.255 1604.67 683 1593.92 683 1580.67L683 1557.96ZM671 1557.75C671 1551.12 665.627 1545.75 659 1545.75C652.373 1545.75 647 1551.12 647 1557.75L647 1580.88C647 1587.51 652.373 1592.88 659 1592.88C665.627 1592.88 671 1587.51 671 1580.88L671 1557.75Z" fill="#310100"/>
<path fill-rule="evenodd" clip-rule="evenodd" d="M683 1643.4C683 1630.14 672.255 1619.4 659 1619.4C645.745 1619.4 635 1630.14 635 1643.4L635 1666.11C635 1679.36 645.745 1690.11 659 1690.11C672.255 1690.11 683 1679.36 683 1666.11L683 1643.4ZM671 1643.18C671 1636.56 665.627 1631.18 659 1631.18C652.373 1631.18 647 1636.56 647 1643.18L647 1666.32C647 1672.95 652.373 1678.32 659 1678.32C665.627 1678.32 671 1672.95 671 1666.32L671 1643.18Z" fill="#310100"/>
<rect x="665" y="654.045" width="70.7076" height="12" rx="6" transform="rotate(90 665 654.045)" fill="#310100"/>
<rect x="665" y="739.482" width="70.7076" height="12" rx="6" transform="rotate(90 665 739.482)" fill="#310100"/>
<rect x="665" y="1233.45" width="70.7076" height="12" rx="6" transform="rotate(90 665 1233.45)" fill="#310100"/>
<rect x="665" y="1318.89" width="70.7076" height="12" rx="6" transform="rotate(90 665 1318.89)" fill="#310100"/>
<rect x="665" y="1148.02" width="70.7076" height="12" rx="6" transform="rotate(90 665 1148.02)" fill="#310100"/>
<rect x="665" y="1062.58" width="70.7076" height="12" rx="6" transform="rotate(90 665 1062.58)" fill="#310100"/>
<rect x="665" y="974.193" width="70.7076" height="12" rx="6" transform="rotate(90 665 974.193)" fill="#310100"/>
<rect x="665" y="1404.33" width="70.7076" height="12" rx="6" transform="rotate(90 665 1404.33)" fill="#310100"/>
<rect x="665" y="1233.45" width="70.7076" height="12" rx="6" transform="rotate(90 665 1233.45)" fill="#310100"/>
<rect x="665" y="1148.02" width="70.7076" height="12" rx="6" transform="rotate(90 665 1148.02)" fill="#310100"/>
<rect x="665" y="1489.77" width="70.7076" height="12" rx="6" transform="rotate(90 665 1489.77)" fill="#310100"/>
<rect x="665" y="1575.21" width="70.7076" height="12" rx="6" transform="rotate(90 665 1575.21)" fill="#310100"/>
<path d="M659 1575.21C662.314 1575.21 665 1577.89 665 1581.21L665 1610.56L653 1610.56L653 1581.21C653 1577.89 655.686 1575.21 659 1575.21V1575.21Z" fill="#310100"/>
<path d="M659 1660.65C662.314 1660.65 665 1663.33 665 1666.65L665 1696L653 1696L653 1666.65C653 1663.33 655.686 1660.65 659 1660.65V1660.65Z" fill="#310100"/>
<path d="M659 636.367C655.686 636.367 653 633.681 653 630.367L653 601.013L665 601.013L665 630.367C665 633.681 662.314 636.367 659 636.367V636.367Z" fill="#310100"/>
</g>
<defs>
<clipPath id="clip0_6090_2361">
<rect width="952" height="1696" fill="white"/>
</clipPath>
</defs>
</svg>
