<svg width="112" height="78" viewBox="0 0 112 78" fill="none" xmlns="http://www.w3.org/2000/svg">
<path d="M11.0484 16.7338C11.6456 13.4494 16.3544 13.4494 16.9516 16.7338L28 77.5L1.34631e-05 77.5L11.0484 16.7338Z" fill="#FFE920"/>
<path d="M11.0451 37.3428C11.6256 34.034 16.3744 34.034 16.9549 37.3428L24 77.5L4.00001 77.5L11.0451 37.3428Z" fill="#FEC104"/>
<path d="M11.0387 58.7615C11.5835 55.4018 16.4165 55.4017 16.9613 58.7615L20 77.5L8.00001 77.5L11.0387 58.7615Z" fill="#F6660A"/>
<path d="M39.0484 16.7338C39.6456 13.4494 44.3544 13.4494 44.9516 16.7338L56 77.5L28 77.5L39.0484 16.7338Z" fill="#FFE920"/>
<path d="M39.0451 37.3428C39.6256 34.034 44.3744 34.034 44.9549 37.3428L52 77.5L32 77.5L39.0451 37.3428Z" fill="#FEC104"/>
<path d="M39.0387 58.7615C39.5835 55.4018 44.4165 55.4017 44.9613 58.7615L48 77.5L36 77.5L39.0387 58.7615Z" fill="#F6660A"/>
<path d="M67.0484 16.7338C67.6456 13.4494 72.3544 13.4494 72.9516 16.7338L84 77.5L56 77.5L67.0484 16.7338Z" fill="#FFE920"/>
<path d="M67.0451 37.3428C67.6256 34.034 72.3744 34.034 72.9549 37.3428L80 77.5L60 77.5L67.0451 37.3428Z" fill="#FEC104"/>
<path d="M67.0387 58.7615C67.5835 55.4018 72.4165 55.4017 72.9613 58.7615L76 77.5L64 77.5L67.0387 58.7615Z" fill="#F6660A"/>
<path d="M95.0484 16.7338C95.6456 13.4494 100.354 13.4494 100.952 16.7338L112 77.5L84 77.5L95.0484 16.7338Z" fill="#FFE920"/>
<path d="M95.0451 37.3428C95.6256 34.034 100.374 34.034 100.955 37.3428L108 77.5L88 77.5L95.0451 37.3428Z" fill="#FEC104"/>
<path d="M95.0387 58.7615C95.5835 55.4018 100.416 55.4017 100.961 58.7615L104 77.5L92 77.5L95.0387 58.7615Z" fill="#F6660A"/>
</svg>
