<svg width="62" height="137" viewBox="0 0 62 137" fill="none" xmlns="http://www.w3.org/2000/svg">
<path d="M25.0026 16.5279C23.5158 16.5279 22.5488 14.9632 23.2137 13.6334L29.4777 1.10557C30.2147 -0.368527 32.3183 -0.368522 33.0554 1.10558L39.3193 13.6334C39.9842 14.9632 39.0172 16.5279 37.5304 16.5279H34.7665V49.0279C34.7665 53.17 38.1244 56.5279 42.2665 56.5279C46.4086 56.5279 49.7665 53.17 49.7665 49.0279V23.5279H47.0026C45.5158 23.5279 44.5488 21.9632 45.2137 20.6334L51.4777 8.10557C52.2147 6.63147 54.3183 6.63148 55.0554 8.10558L61.3193 20.6334C61.9842 21.9632 61.0172 23.5279 59.5304 23.5279H56.7665V46.5279C56.7665 56.469 48.7043 64.5279 38.7631 64.5279H35L35 133.5C35 135.433 33.433 137 31.5 137C29.567 137 28 135.433 28 133.5L28 64.5279H22.7699C12.8288 64.5279 4.76651 56.469 4.76651 46.5279V23.5279H2.00258C0.515816 23.5279 -0.451175 21.9632 0.213726 20.6334L6.47766 8.10557C7.21471 6.63147 9.31832 6.63148 10.0554 8.10558L16.3193 20.6334C16.9842 21.9632 16.0172 23.5279 14.5304 23.5279H11.7665V48.5279C11.7665 52.9461 15.3482 56.5279 19.7665 56.5279C24.1848 56.5279 27.7665 52.9461 27.7665 48.5279V16.5279H25.0026Z" fill="#430100"/>
</svg>
