<svg width="199" height="239" viewBox="0 0 199 239" fill="none" xmlns="http://www.w3.org/2000/svg">
<path d="M173.148 234.68C173.148 236.656 171.546 238.258 169.57 238.258L129.498 238.258C127.522 238.258 125.92 236.656 125.92 234.68V208.92C125.92 206.944 127.522 205.342 129.498 205.342L169.57 205.342C171.546 205.342 173.148 206.944 173.148 208.92V234.68Z" fill="#2B2B2B"/>
<path d="M121.625 234.68C121.625 236.656 120.023 238.258 118.047 238.258L79.406 238.258C77.43 238.258 75.8281 236.656 75.8281 234.68L75.8281 208.92C75.8281 206.944 77.43 205.342 79.406 205.342L118.047 205.342C120.023 205.342 121.625 206.944 121.625 208.92V234.68Z" fill="#2B2B2B"/>
<path d="M71.5347 234.68C71.5347 236.656 69.9328 238.258 67.9568 238.258L29.3161 238.258C27.3401 238.258 25.7383 236.656 25.7383 234.68L25.7383 208.92C25.7383 206.944 27.3401 205.342 29.3161 205.342L67.9568 205.342C69.9328 205.342 71.5347 206.944 71.5347 208.92L71.5347 234.68Z" fill="#2B2B2B"/>
<path fill-rule="evenodd" clip-rule="evenodd" d="M125.922 208.92V234.68H121.629L121.629 208.92L125.922 208.92Z" fill="#232222"/>
<path fill-rule="evenodd" clip-rule="evenodd" d="M75.8325 208.92L75.8325 234.68H71.5391L71.5391 208.92L75.8325 208.92Z" fill="#232222"/>
<path d="M34.9961 63.6857C34.9961 28.5131 63.5091 0 98.6817 0C133.854 0 162.367 28.513 162.367 63.6856V180.323H34.9961V63.6857Z" fill="#3B3B3B"/>
<g opacity="0.4">
<path d="M102 0.08496C100.901 0.0285508 99.7947 0 98.6817 0C98.4542 0 98.227 0.0011931 98 0.00357339V20.7605H102V0.08496Z" fill="#323232"/>
<path d="M52.257 20.0894C53.1702 19.1174 54.1135 18.1741 55.0855 17.261L69.6257 31.8012L66.7973 34.6296L52.257 20.0894Z" fill="#323232"/>
<path d="M35.4952 55.6741C35.6631 54.3364 35.8725 53.0116 36.122 51.701L57.3964 57.4015L56.3612 61.2652L35.4952 55.6741Z" fill="#323232"/>
<path d="M34.9961 98V94H56.7566V98H34.9961Z" fill="#323232"/>
<path d="M34.9961 138V134H56.7566V138H34.9961Z" fill="#323232"/>
<path d="M162.367 134V138H141.45V134H162.367Z" fill="#323232"/>
<path d="M162.367 94V98H141.45V94H162.367Z" fill="#323232"/>
<path d="M161.282 51.9162C161.527 53.228 161.732 54.5541 161.895 55.8929L141.846 61.2652L140.811 57.4015L161.282 51.9162Z" fill="#323232"/>
<path d="M142.711 17.6715C143.674 18.5937 144.609 19.5458 145.513 20.5263L131.41 34.6296L128.581 31.8012L142.711 17.6715Z" fill="#323232"/>
</g>
<path d="M53 65.5C53 39.8188 73.8188 19 99.5 19C125.181 19 146 39.8188 146 65.5V176H53V65.5Z" fill="#2B2B2B"/>
<path d="M72 176H68V31.2944C69.27 30.1242 70.6054 29.0239 72 27.9995V176Z" fill="#232222"/>
<path d="M101 176H97V19.0661C97.8278 19.0222 98.6613 19 99.5 19C100.002 19 100.502 19.008 101 19.0237V176Z" fill="#232222"/>
<path d="M131 176H127V27.9995C128.395 29.0239 129.73 30.1242 131 31.2944V176Z" fill="#232222"/>
<path d="M198.923 205.338C198.923 207.314 197.321 208.916 195.345 208.916L155.273 208.916C153.297 208.916 151.695 207.314 151.695 205.338V179.578C151.695 177.602 153.297 176 155.273 176L195.345 176C197.321 176 198.923 177.602 198.923 179.578V205.338Z" fill="#3B3B3B"/>
<path d="M147.399 205.338C147.399 207.314 145.798 208.916 143.822 208.916L105.181 208.916C103.205 208.916 101.603 207.314 101.603 205.338V179.578C101.603 177.602 103.205 176 105.181 176L143.822 176C145.798 176 147.399 177.602 147.399 179.578V205.338Z" fill="#3B3B3B"/>
<path d="M97.3096 205.338C97.3096 207.314 95.7077 208.916 93.7317 208.916L55.091 208.916C53.115 208.916 51.5132 207.314 51.5132 205.338L51.5132 179.578C51.5132 177.602 53.115 176 55.091 176L93.7317 176C95.7077 176 97.3096 177.602 97.3096 179.578V205.338Z" fill="#3B3B3B"/>
<path d="M47.2197 205.338C47.2197 207.314 45.6179 208.916 43.6419 208.916L3.57003 208.916C1.59405 208.916 -0.00781267 207.314 -0.0078125 205.338L-0.00781025 179.578C-0.00781008 177.602 1.59405 176 3.57004 176L43.6419 176C45.6179 176 47.2197 177.602 47.2197 179.578L47.2197 205.338Z" fill="#3B3B3B"/>
<path fill-rule="evenodd" clip-rule="evenodd" d="M151.688 179.578L151.688 205.339H147.395V179.578L151.688 179.578Z" fill="#323232"/>
<path fill-rule="evenodd" clip-rule="evenodd" d="M101.598 179.578V205.339H97.3047L97.3047 179.578L101.598 179.578Z" fill="#323232"/>
<path fill-rule="evenodd" clip-rule="evenodd" d="M51.5083 179.578L51.5083 205.339L47.2148 205.339L47.2148 179.578L51.5083 179.578Z" fill="#323232"/>
<path d="M83.9623 201.665C80.115 201.665 76.9961 198.546 76.9961 194.699V176L90.9285 176V194.699C90.9285 198.546 87.8096 201.665 83.9623 201.665Z" fill="#FFE920"/>
<path d="M69.9961 191.001C66.1301 191.001 62.9961 187.867 62.9961 184.001L62.9961 176.001L76.9961 176L76.9961 184.001C76.9961 187.867 73.8621 191.001 69.9961 191.001Z" fill="#FFE920"/>
<path d="M130.962 213.401C127.115 213.401 123.996 210.282 123.996 206.435V176.004L137.929 176.004L137.929 206.435C137.929 210.282 134.81 213.401 130.962 213.401Z" fill="#FFE920"/>
<rect x="78" y="64" width="43" height="25" rx="2" fill="#FA1F2E"/>
<path fill-rule="evenodd" clip-rule="evenodd" d="M75 57C72.7909 57 71 58.7909 71 61V92C71 94.2091 72.7909 96 75 96H124C126.209 96 128 94.2091 128 92V61C128 58.7909 126.209 57 124 57H75ZM80 64C78.8954 64 78 64.8954 78 66V87C78 88.1046 78.8954 89 80 89H88V64H80ZM104 89H95V64H104V89ZM111 89H119C120.105 89 121 88.1046 121 87V66C121 64.8954 120.105 64 119 64H111V89Z" fill="#3B3B3B"/>
<path d="M117 127.5C117 137.165 109.165 145 99.5 145C89.835 145 82 137.165 82 127.5C82 117.835 89.835 110 99.5 110C109.165 110 117 117.835 117 127.5ZM87.9311 127.5C87.9311 133.889 93.1107 139.069 99.5 139.069C105.889 139.069 111.069 133.889 111.069 127.5C111.069 121.111 105.889 115.931 99.5 115.931C93.1107 115.931 87.9311 121.111 87.9311 127.5Z" fill="#3B3B3B"/>
<rect x="104" y="106" width="15" height="9" rx="4.5" transform="rotate(90 104 106)" fill="#323232"/>
</svg>
