<svg width="435" height="154" viewBox="0 0 435 154" fill="none" xmlns="http://www.w3.org/2000/svg">
<path d="M0 36.5C0 16.3416 16.3416 0 36.5 0C56.6584 0 73 16.3416 73 36.5V145H0V36.5Z" fill="#FFE769"/>
<path d="M73 36C73 16.1178 89.1178 0 109 0C128.882 0 145 16.1178 145 36V145H73V36Z" fill="#FFE769"/>
<path d="M0 45.5C0 25.3416 16.3416 9 36.5 9C56.6584 9 73 25.3416 73 45.5V154H0V45.5Z" fill="#FFE920"/>
<path d="M73 45C73 25.1178 89.1178 9 109 9C128.882 9 145 25.1178 145 45V154H73V45Z" fill="#FFE920"/>
<path d="M0 88.5C0 68.3416 16.3416 52 36.5 52C56.6584 52 73 68.3416 73 88.5V154H0V88.5Z" fill="#FEC104"/>
<path d="M73 88C73 68.1177 89.1178 52 109 52C128.882 52 145 68.1178 145 88V154H73V88Z" fill="#FEC104"/>
<path d="M0 135.5C0 115.342 16.3416 99 36.5 99C56.6584 99 73 115.342 73 135.5V154H0V135.5Z" fill="#F6660A"/>
<path d="M73 135C73 115.118 89.1178 99 109 99C128.882 99 145 115.118 145 135V154H73V135Z" fill="#F6660A"/>
<circle cx="103" cy="132" r="6" fill="#FEC104"/>
<circle cx="49.5" cy="81.5" r="4.5" fill="#FFE920"/>
<circle cx="101" cy="23" r="4" fill="#FFE769"/>
<path d="M290 36.5C290 16.3416 306.342 0 326.5 0C346.658 0 363 16.3416 363 36.5V145H290V36.5Z" fill="#FFE769"/>
<path d="M363 36C363 16.1178 379.118 0 399 0C418.882 0 435 16.1178 435 36V145H363V36Z" fill="#FFE769"/>
<path d="M290 45.5C290 25.3416 306.342 9 326.5 9C346.658 9 363 25.3416 363 45.5V154H290V45.5Z" fill="#FFE920"/>
<path d="M363 45C363 25.1178 379.118 9 399 9C418.882 9 435 25.1178 435 45V154H363V45Z" fill="#FFE920"/>
<path d="M290 88.5C290 68.3416 306.342 52 326.5 52C346.658 52 363 68.3416 363 88.5V154H290V88.5Z" fill="#FEC104"/>
<path d="M363 88C363 68.1177 379.118 52 399 52C418.882 52 435 68.1178 435 88V154H363V88Z" fill="#FEC104"/>
<path d="M290 135.5C290 115.342 306.342 99 326.5 99C346.658 99 363 115.342 363 135.5V154H290V135.5Z" fill="#F6660A"/>
<path d="M363 135C363 115.118 379.118 99 399 99C418.882 99 435 115.118 435 135V154H363V135Z" fill="#F6660A"/>
<circle cx="404.5" cy="126.5" r="8.5" fill="#FEC104"/>
<circle cx="312.5" cy="81.5" r="4.5" fill="#FFE920"/>
<circle cx="382.5" cy="40.5" r="6.5" fill="#FFE769"/>
<path d="M145 36.5C145 16.3416 161.342 0 181.5 0C201.658 0 218 16.3416 218 36.5V145H145V36.5Z" fill="#FFE769"/>
<path d="M218 36C218 16.1178 234.118 0 254 0C273.882 0 290 16.1178 290 36V145H218V36Z" fill="#FFE769"/>
<path d="M145 45.5C145 25.3416 161.342 9 181.5 9C201.658 9 218 25.3416 218 45.5V154H145V45.5Z" fill="#FFE920"/>
<path d="M218 45C218 25.1178 234.118 9 254 9C273.882 9 290 25.1178 290 45V154H218V45Z" fill="#FFE920"/>
<path d="M145 88.5C145 68.3416 161.342 52 181.5 52C201.658 52 218 68.3416 218 88.5V154H145V88.5Z" fill="#FEC104"/>
<path d="M218 88C218 68.1177 234.118 52 254 52C273.882 52 290 68.1178 290 88V154H218V88Z" fill="#FEC104"/>
<path d="M145 135.5C145 115.342 161.342 99 181.5 99C201.658 99 218 115.342 218 135.5V154H145V135.5Z" fill="#F6660A"/>
<path d="M218 135C218 115.118 234.118 99 254 99C273.882 99 290 115.118 290 135V154H218V135Z" fill="#F6660A"/>
<circle cx="200.5" cy="39.5" r="6.5" fill="#FFE769"/>
<circle cx="240" cy="81" r="4" fill="#FFE920"/>
<circle cx="200" cy="129" r="6" fill="#FEC104"/>
</svg>
