<svg width="86" height="62" viewBox="0 0 86 62" fill="none" xmlns="http://www.w3.org/2000/svg">
<path d="M16.0637 1.49653C16.3881 0.631363 17.6119 0.631365 17.9363 1.49653L20.7178 8.91369C24.9391 7.04163 29.6003 5.99966 34.5 5.99966C39.3997 5.99966 44.0609 7.04163 48.2822 8.91369L51.0637 1.49653C51.3881 0.631363 52.6119 0.631365 52.9363 1.49653L58.2248 15.5991C64.8609 21.9671 69 30.9471 69 40.8105C69 45.176 67.6679 49.2571 65.3881 52.6495C67.262 53.3309 69.3332 53.4409 71.3146 52.9023C71.1798 52.6885 71.0637 52.4626 70.968 52.2268L70.8995 52.0498C70.6225 51.2712 70.5724 50.423 70.7543 49.595C70.9362 48.7669 71.3435 47.9898 71.933 47.3461C72.5225 46.7023 73.2723 46.2157 74.1029 45.938C74.9335 45.6602 75.8141 45.6016 76.6514 45.7682L76.85 45.812L76.8971 45.827L84.2741 47.769C84.8785 47.9281 85.2391 48.5474 85.0792 49.1515L83.0981 56.6371C82.8578 57.4744 82.3863 58.2435 81.7358 58.8591C81.0853 59.4747 80.2812 59.9128 79.4126 60.1249C78.544 60.337 77.6447 60.3148 76.8144 60.0608C75.9841 59.8067 75.2551 59.3308 74.7083 58.6856C74.265 58.1626 73.954 57.5433 73.7983 56.8733C73.7964 56.8651 73.7946 56.8569 73.7927 56.8487C69.9879 58.2847 65.8357 57.9968 62.339 56.2539C58.5857 59.8083 53.5437 61.9997 48 61.9997H21C9.40202 61.9997 0 52.4084 0 40.8105C0 30.9471 4.13915 21.9671 10.7752 15.5991L16.0637 1.49653Z" fill="#070C11"/>
<path d="M21 23C21 20.2386 23.2386 18 26 18C28.7614 18 31 20.2386 31 23V31C31 33.7614 28.7614 36 26 36C23.2386 36 21 33.7614 21 31V23Z" fill="#FFE920"/>
<path d="M38 23C38 20.2386 40.2386 18 43 18C45.7614 18 48 20.2386 48 23V31C48 33.7614 45.7614 36 43 36C40.2386 36 38 33.7614 38 31V23Z" fill="#FFE920"/>
<path d="M17 46.5C17 43.4624 19.4624 41 22.5 41H23.1574L26.2361 46.3382L29.3148 41H39.9282L42.7639 46.3382L45.8426 41H46.5C49.5376 41 52 43.4624 52 46.5C52 49.5376 49.5376 52 46.5 52H22.5C19.4624 52 17 49.5376 17 46.5Z" fill="#FFE920"/>
</svg>
