<svg width="112" height="36" viewBox="0 0 112 36" fill="none" xmlns="http://www.w3.org/2000/svg">
<path d="M11.2146 7.46357C12.2203 4.94914 15.7797 4.94914 16.7854 7.46357L28 35.5H0L11.2146 7.46357Z" fill="#FFE920"/>
<path d="M11.2146 17.4636C12.2203 14.9491 15.7797 14.9491 16.7854 17.4636L24 35.5H4L11.2146 17.4636Z" fill="#FEC104"/>
<path d="M11.191 26.9906C12.1643 24.3951 15.8357 24.3951 16.809 26.9906L20 35.5H8L11.191 26.9906Z" fill="#F6660A"/>
<path d="M39.2146 7.46357C40.2203 4.94914 43.7797 4.94914 44.7854 7.46357L56 35.5H28L39.2146 7.46357Z" fill="#FFE920"/>
<path d="M39.2146 17.4636C40.2203 14.9491 43.7797 14.9491 44.7854 17.4636L52 35.5H32L39.2146 17.4636Z" fill="#FEC104"/>
<path d="M39.191 26.9906C40.1643 24.3951 43.8357 24.3951 44.809 26.9906L48 35.5H36L39.191 26.9906Z" fill="#F6660A"/>
<path d="M67.2146 7.46357C68.2203 4.94914 71.7797 4.94914 72.7854 7.46357L84 35.5H56L67.2146 7.46357Z" fill="#FFE920"/>
<path d="M67.2146 17.4636C68.2203 14.9491 71.7797 14.9491 72.7854 17.4636L80 35.5H60L67.2146 17.4636Z" fill="#FEC104"/>
<path d="M67.191 26.9906C68.1643 24.3951 71.8357 24.3951 72.809 26.9906L76 35.5H64L67.191 26.9906Z" fill="#F6660A"/>
<path d="M95.2146 7.46357C96.2203 4.94914 99.7797 4.94914 100.785 7.46357L112 35.5H84L95.2146 7.46357Z" fill="#FFE920"/>
<path d="M95.2146 17.4636C96.2203 14.9491 99.7797 14.9491 100.785 17.4636L108 35.5H88L95.2146 17.4636Z" fill="#FEC104"/>
<path d="M95.191 26.9906C96.1643 24.3951 99.8357 24.3951 100.809 26.9906L104 35.5H92L95.191 26.9906Z" fill="#F6660A"/>
</svg>
