<svg width="62" height="138" viewBox="0 0 62 138" fill="none" xmlns="http://www.w3.org/2000/svg">
<path d="M25.237 17.0279C23.7502 17.0279 22.7832 15.4632 23.4481 14.1334L29.712 1.60557C30.4491 0.131473 32.5527 0.131478 33.2897 1.60558L39.5537 14.1334C40.2186 15.4632 39.2516 17.0279 37.7648 17.0279H35.0009V49.5279C35.0009 53.67 38.3588 57.0279 42.5009 57.0279C46.643 57.0279 50.0009 53.67 50.0009 49.5279V24.0279H47.237C45.7502 24.0279 44.7832 22.4632 45.4481 21.1334L51.712 8.60557C52.4491 7.13147 54.5527 7.13148 55.2897 8.60558L61.5537 21.1334C62.2186 22.4632 61.2516 24.0279 59.7648 24.0279H57.0009V47.0279C57.0009 56.969 48.9386 65.0279 38.9975 65.0279H35.2344L35.2344 134C35.2344 135.933 33.6674 137.5 31.7344 137.5C29.8014 137.5 28.2344 135.933 28.2344 134L28.2344 65.0279H23.0043C13.0631 65.0279 5.00089 56.969 5.00089 47.0279V24.0279H2.23696C0.750191 24.0279 -0.2168 22.4632 0.448101 21.1334L6.71204 8.60557C7.44908 7.13147 9.55269 7.13148 10.2897 8.60558L16.5537 21.1334C17.2186 22.4632 16.2516 24.0279 14.7648 24.0279H12.0009V49.0279C12.0009 53.4461 15.5826 57.0279 20.0009 57.0279C24.4192 57.0279 28.0009 53.4461 28.0009 49.0279V17.0279H25.237Z" fill="#FA1F2E"/>
</svg>
