<svg width="157" height="1696" viewBox="0 0 157 1696" fill="none" xmlns="http://www.w3.org/2000/svg">
<path fill-rule="evenodd" clip-rule="evenodd" d="M103 32.8379C103 19.5831 92.2548 8.83789 79 8.83789C65.7452 8.83789 55 19.5831 55 32.8379L55 55.5455C55 68.8003 65.7452 79.5455 79 79.5455C92.2548 79.5455 103 68.8003 103 55.5455L103 32.8379ZM91 32.6225C91 25.9951 85.6274 20.6225 79 20.6225C72.3726 20.6225 67 25.9951 67 32.6225L67 55.7609C67 62.3883 72.3726 67.7609 79 67.7609C85.6274 67.7609 91 62.3883 91 55.7609L91 32.6225Z" fill="#310100"/>
<path fill-rule="evenodd" clip-rule="evenodd" d="M103 121.223C103 107.968 92.2548 97.2227 79 97.2227C65.7452 97.2227 55 107.968 55 121.223L55 143.93C55 157.185 65.7452 167.93 79 167.93C92.2548 167.93 103 157.185 103 143.93L103 121.223ZM91 121.007C91 114.38 85.6274 109.007 79 109.007C72.3726 109.007 67 114.38 67 121.007L67 144.146C67 150.773 72.3726 156.146 79 156.146C85.6274 156.146 91 150.773 91 144.146L91 121.007Z" fill="#310100"/>
<path fill-rule="evenodd" clip-rule="evenodd" d="M103 206.662C103 193.407 92.2548 182.662 79 182.662C65.7452 182.662 55 193.407 55 206.662L55 229.37C55 242.625 65.7452 253.37 79 253.37C92.2548 253.37 103 242.625 103 229.37L103 206.662ZM91 206.447C91 199.819 85.6274 194.447 79 194.447C72.3726 194.447 67 199.819 67 206.447L67 229.585C67 236.213 72.3726 241.585 79 241.585C85.6274 241.585 91 236.213 91 229.585L91 206.447Z" fill="#310100"/>
<path fill-rule="evenodd" clip-rule="evenodd" d="M103 496.365C103 483.11 92.2548 472.365 79 472.365C65.7452 472.365 55 483.11 55 496.365L55 519.073C55 532.328 65.7452 543.073 79 543.073C92.2548 543.073 103 532.328 103 519.073L103 496.365ZM91 496.15C91 489.522 85.6274 484.15 79 484.15C72.3726 484.15 67 489.522 67 496.15L67 519.288C67 525.916 72.3726 531.288 79 531.288C85.6274 531.288 91 525.916 91 519.288L91 496.15Z" fill="#310100"/>
<path fill-rule="evenodd" clip-rule="evenodd" d="M103 581.805C103 568.55 92.2548 557.805 79 557.805C65.7452 557.805 55 568.55 55 581.805L55 604.512C55 617.767 65.7452 628.512 79 628.512C92.2548 628.512 103 617.767 103 604.512L103 581.805ZM91 581.589C91 574.962 85.6274 569.589 79 569.589C72.3726 569.589 67 574.962 67 581.589L67 604.728C67 611.355 72.3726 616.728 79 616.728C85.6274 616.728 91 611.355 91 604.728L91 581.589Z" fill="#310100"/>
<path fill-rule="evenodd" clip-rule="evenodd" d="M103 667.242C103 653.987 92.2548 643.242 79 643.242C65.7452 643.242 55 653.987 55 667.242L55 689.95C55 703.205 65.7452 713.95 79 713.95C92.2548 713.95 103 703.205 103 689.95L103 667.242ZM91 667.027C91 660.399 85.6274 655.027 79 655.027C72.3726 655.027 67 660.399 67 667.027L67 690.165C67 696.793 72.3726 702.165 79 702.165C85.6274 702.165 91 696.793 91 690.165L91 667.027Z" fill="#310100"/>
<path fill-rule="evenodd" clip-rule="evenodd" d="M103 752.682C103 739.427 92.2548 728.682 79 728.682C65.7452 728.682 55 739.427 55 752.682L55 775.389C55 788.644 65.7452 799.389 79 799.389C92.2548 799.389 103 788.644 103 775.389L103 752.682ZM91 752.466C91 745.839 85.6274 740.466 79 740.466C72.3726 740.466 67 745.839 67 752.466L67 775.605C67 782.232 72.3726 787.605 79 787.605C85.6274 787.605 91 782.232 91 775.605L91 752.466Z" fill="#310100"/>
<rect x="85" y="53.0312" width="70.7076" height="12" rx="6" transform="rotate(90 85 53.0312)" fill="#310100"/>
<rect x="85" y="138.469" width="70.7076" height="12" rx="6" transform="rotate(90 85 138.469)" fill="#310100"/>
<rect x="85" y="223.908" width="70.7076" height="12" rx="6" transform="rotate(90 85 223.908)" fill="#310100"/>
<rect x="85" y="428.174" width="70.7076" height="12" rx="6" transform="rotate(90 85 428.174)" fill="#310100"/>
<rect x="85" y="513.611" width="70.7076" height="12" rx="6" transform="rotate(90 85 513.611)" fill="#310100"/>
<rect x="85" y="599.051" width="70.7076" height="12" rx="6" transform="rotate(90 85 599.051)" fill="#310100"/>
<rect x="85" y="684.488" width="70.7076" height="12" rx="6" transform="rotate(90 85 684.488)" fill="#310100"/>
<path d="M79 769.928C82.3137 769.928 85 772.614 85 775.928L85 805.282L73 805.282L73 775.928C73 772.614 75.6863 769.928 79 769.928V769.928Z" fill="#310100"/>
<path d="M79 35.3535C75.6863 35.3535 73 32.6672 73 29.3535L73 -0.000273705L85 -0.00027215L85 29.3535C85 32.6672 82.3137 35.3535 79 35.3535V35.3535Z" fill="#310100"/>
<path fill-rule="evenodd" clip-rule="evenodd" d="M10 332.082C10 295.996 37.7018 266.38 73 263.339L73 263.19L75.112 263.19C76.3989 263.118 77.6952 263.082 79 263.082C80.3048 263.082 81.6011 263.118 82.888 263.19L85 263.19L85 263.339C120.298 266.38 148 295.996 148 332.082L148 431.12L152 431.12C154.761 431.12 157 433.359 157 436.12L157 455.582C157 458.343 154.761 460.582 152 460.582L5 460.582C2.23857 460.582 1.56008e-07 458.343 1.53801e-07 455.582L1.38252e-07 436.12C1.36046e-07 433.359 2.23858 431.12 5 431.12L10 431.12L10 332.082ZM53 301.082C53 288.788 61.5332 278.486 73 275.778L73 325.933L53 325.933L53 301.082ZM53 337.933L73 337.933L73 431.013L53 431.013L53 337.933ZM85 337.933L85 431.013L105 431.013L105 337.933L85 337.933ZM85 275.778L85 325.933L105 325.933L105 301.082C105 288.788 96.4668 278.486 85 275.778ZM22.3278 325.933C23.9947 310.392 31.9082 296.72 43.5077 287.478C41.8877 291.702 41 296.288 41 301.082L41 325.933L22.3278 325.933ZM22 337.933L22 431.013L41 431.013L41 337.933L22 337.933ZM117 337.933L117 431.013L136 431.013L136 337.933L117 337.933ZM135.672 325.933L117 325.933L117 301.082C117 296.288 116.112 291.702 114.492 287.478C126.092 296.72 134.005 310.392 135.672 325.933Z" fill="#310100"/>
<path fill-rule="evenodd" clip-rule="evenodd" d="M103 838.119C103 824.864 92.2548 814.119 79 814.119C65.7452 814.119 55 824.864 55 838.119L55 860.827C55 874.082 65.7452 884.827 79 884.827C92.2548 884.827 103 874.082 103 860.827L103 838.119ZM91 837.904C91 831.276 85.6274 825.904 79 825.904C72.3726 825.904 67 831.276 67 837.904L67 861.042C67 867.67 72.3726 873.042 79 873.042C85.6274 873.042 91 867.67 91 861.042L91 837.904Z" fill="#310100"/>
<path fill-rule="evenodd" clip-rule="evenodd" d="M103 926.504C103 913.249 92.2548 902.504 79 902.504C65.7452 902.504 55 913.249 55 926.504L55 949.211C55 962.466 65.7452 973.211 79 973.211C92.2548 973.211 103 962.466 103 949.211L103 926.504ZM91 926.289C91 919.661 85.6274 914.289 79 914.289C72.3726 914.289 67 919.661 67 926.288L67 949.427C67 956.054 72.3726 961.427 79 961.427C85.6274 961.427 91 956.054 91 949.427L91 926.289Z" fill="#310100"/>
<path fill-rule="evenodd" clip-rule="evenodd" d="M103 1011.94C103 998.689 92.2548 987.943 79 987.943C65.7452 987.943 55 998.689 55 1011.94L55 1034.65C55 1047.91 65.7452 1058.65 79 1058.65C92.2548 1058.65 103 1047.91 103 1034.65L103 1011.94ZM91 1011.73C91 1005.1 85.6274 999.728 79 999.728C72.3726 999.728 67 1005.1 67 1011.73L67 1034.87C67 1041.49 72.3726 1046.87 79 1046.87C85.6274 1046.87 91 1041.49 91 1034.87L91 1011.73Z" fill="#310100"/>
<path fill-rule="evenodd" clip-rule="evenodd" d="M103 1301.65C103 1288.39 92.2548 1277.65 79 1277.65C65.7452 1277.65 55 1288.39 55 1301.65L55 1324.35C55 1337.61 65.7452 1348.35 79 1348.35C92.2548 1348.35 103 1337.61 103 1324.35L103 1301.65ZM91 1301.43C91 1294.8 85.6274 1289.43 79 1289.43C72.3726 1289.43 67 1294.8 67 1301.43L67 1324.57C67 1331.2 72.3726 1336.57 79 1336.57C85.6274 1336.57 91 1331.2 91 1324.57L91 1301.43Z" fill="#310100"/>
<path fill-rule="evenodd" clip-rule="evenodd" d="M103 1387.09C103 1373.83 92.2548 1363.09 79 1363.09C65.7452 1363.09 55 1373.83 55 1387.09L55 1409.79C55 1423.05 65.7452 1433.79 79 1433.79C92.2548 1433.79 103 1423.05 103 1409.79L103 1387.09ZM91 1386.87C91 1380.24 85.6274 1374.87 79 1374.87C72.3726 1374.87 67 1380.24 67 1386.87L67 1410.01C67 1416.64 72.3726 1422.01 79 1422.01C85.6274 1422.01 91 1416.64 91 1410.01L91 1386.87Z" fill="#310100"/>
<path fill-rule="evenodd" clip-rule="evenodd" d="M103 1472.52C103 1459.27 92.2548 1448.52 79 1448.52C65.7452 1448.52 55 1459.27 55 1472.52L55 1495.23C55 1508.49 65.7452 1519.23 79 1519.23C92.2548 1519.23 103 1508.49 103 1495.23L103 1472.52ZM91 1472.31C91 1465.68 85.6274 1460.31 79 1460.31C72.3726 1460.31 67 1465.68 67 1472.31L67 1495.45C67 1502.07 72.3726 1507.45 79 1507.45C85.6274 1507.45 91 1502.07 91 1495.45L91 1472.31Z" fill="#310100"/>
<path fill-rule="evenodd" clip-rule="evenodd" d="M103 1557.96C103 1544.71 92.2548 1533.96 79 1533.96C65.7452 1533.96 55 1544.71 55 1557.96L55 1580.67C55 1593.92 65.7452 1604.67 79 1604.67C92.2548 1604.67 103 1593.92 103 1580.67L103 1557.96ZM91 1557.75C91 1551.12 85.6274 1545.75 79 1545.75C72.3726 1545.75 67 1551.12 67 1557.75L67 1580.88C67 1587.51 72.3726 1592.88 79 1592.88C85.6274 1592.88 91 1587.51 91 1580.88L91 1557.75Z" fill="#310100"/>
<path fill-rule="evenodd" clip-rule="evenodd" d="M103 1643.4C103 1630.15 92.2548 1619.4 79 1619.4C65.7452 1619.4 55 1630.15 55 1643.4L55 1666.11C55 1679.36 65.7452 1690.11 79 1690.11C92.2548 1690.11 103 1679.36 103 1666.11L103 1643.4ZM91 1643.19C91 1636.56 85.6274 1631.19 79 1631.19C72.3726 1631.19 67 1636.56 67 1643.19L67 1666.32C67 1672.95 72.3726 1678.32 79 1678.32C85.6274 1678.32 91 1672.95 91 1666.32L91 1643.19Z" fill="#310100"/>
<rect x="85" y="858.312" width="70.7076" height="12" rx="6" transform="rotate(90 85 858.312)" fill="#310100"/>
<rect x="85" y="943.75" width="70.7076" height="12" rx="6" transform="rotate(90 85 943.75)" fill="#310100"/>
<rect x="85" y="1029.19" width="70.7076" height="12" rx="6" transform="rotate(90 85 1029.19)" fill="#310100"/>
<rect x="85" y="1233.46" width="70.7076" height="12" rx="6" transform="rotate(90 85 1233.46)" fill="#310100"/>
<rect x="85" y="1318.89" width="70.7076" height="12" rx="6" transform="rotate(90 85 1318.89)" fill="#310100"/>
<rect x="85" y="1404.33" width="70.7076" height="12" rx="6" transform="rotate(90 85 1404.33)" fill="#310100"/>
<rect x="85" y="1489.77" width="70.7076" height="12" rx="6" transform="rotate(90 85 1489.77)" fill="#310100"/>
<rect x="85" y="1575.21" width="70.7076" height="12" rx="6" transform="rotate(90 85 1575.21)" fill="#310100"/>
<path d="M79 1575.21C82.3137 1575.21 85 1577.89 85 1581.21L85 1610.56L73 1610.56L73 1581.21C73 1577.89 75.6863 1575.21 79 1575.21V1575.21Z" fill="#310100"/>
<path d="M79 1660.65C82.3137 1660.65 85 1663.33 85 1666.65L85 1696L73 1696L73 1666.65C73 1663.33 75.6863 1660.65 79 1660.65V1660.65Z" fill="#310100"/>
<path d="M79 840.635C75.6863 840.635 73 837.948 73 834.635L73 805.281L85 805.281L85 834.635C85 837.948 82.3137 840.635 79 840.635V840.635Z" fill="#310100"/>
<path fill-rule="evenodd" clip-rule="evenodd" d="M10 1137.36C10 1101.28 37.7018 1071.66 73 1068.62L73 1068.47L75.112 1068.47C76.3989 1068.4 77.6952 1068.36 79 1068.36C80.3048 1068.36 81.6011 1068.4 82.888 1068.47L85 1068.47L85 1068.62C120.298 1071.66 148 1101.28 148 1137.36L148 1236.4L152 1236.4C154.761 1236.4 157 1238.64 157 1241.4L157 1260.86C157 1263.62 154.761 1265.86 152 1265.86L5 1265.86C2.23857 1265.86 1.56008e-07 1263.62 1.53801e-07 1260.86L1.38252e-07 1241.4C1.36046e-07 1238.64 2.23858 1236.4 5 1236.4L10 1236.4L10 1137.36ZM53 1106.36C53 1094.07 61.5332 1083.77 73 1081.06L73 1131.21L53 1131.21L53 1106.36ZM53 1143.21L73 1143.21L73 1236.29L53 1236.29L53 1143.21ZM85 1143.21L85 1236.29L105 1236.29L105 1143.21L85 1143.21ZM85 1081.06L85 1131.21L105 1131.21L105 1106.36C105 1094.07 96.4668 1083.77 85 1081.06ZM22.3278 1131.21C23.9947 1115.67 31.9082 1102 43.5077 1092.76C41.8877 1096.98 41 1101.57 41 1106.36L41 1131.21L22.3278 1131.21ZM22 1143.21L22 1236.29L41 1236.29L41 1143.21L22 1143.21ZM117 1143.21L117 1236.29L136 1236.29L136 1143.21L117 1143.21ZM135.672 1131.21L117 1131.21L117 1106.36C117 1101.57 116.112 1096.98 114.492 1092.76C126.092 1102 134.005 1115.67 135.672 1131.21Z" fill="#310100"/>
</svg>
