<svg width="157" height="1696" viewBox="0 0 157 1696" fill="none" xmlns="http://www.w3.org/2000/svg">
<path fill-rule="evenodd" clip-rule="evenodd" d="M9.99999 863.371C9.99999 827.285 37.7018 797.669 73 794.628L73 794.479L75.112 794.479C76.3989 794.407 77.6952 794.371 79 794.371C80.3047 794.371 81.6011 794.407 82.888 794.479L85 794.479L85 794.628C120.298 797.669 148 827.285 148 863.371L148 962.409L152 962.409C154.761 962.409 157 964.648 157 967.409L157 986.871C157 989.632 154.761 991.871 152 991.871L5 991.871C2.23857 991.871 -1.56004e-07 989.632 -1.53798e-07 986.871L-1.38249e-07 967.409C-1.36043e-07 964.648 2.23858 962.409 5 962.409L9.99999 962.409L9.99999 863.371ZM53 832.371C53 820.077 61.5332 809.775 73 807.067L73 857.222L53 857.222L53 832.371ZM53 869.222L73 869.222L73 962.302L53 962.302L53 869.222ZM85 869.222L85 962.302L105 962.302L105 869.222L85 869.222ZM85 807.067L85 857.222L105 857.222L105 832.371C105 820.077 96.4668 809.775 85 807.067ZM22.3278 857.222C23.9947 841.681 31.9082 828.009 43.5077 818.767C41.8877 822.991 41 827.577 41 832.371L41 857.222L22.3278 857.222ZM22 869.222L22 962.302L41 962.302L41 869.222L22 869.222ZM117 869.222L117 962.302L136 962.302L136 869.222L117 869.222ZM135.672 857.222L117 857.222L117 832.371C117 827.577 116.112 822.991 114.492 818.767C126.092 828.009 134.005 841.681 135.672 857.222Z" fill="#310100"/>
<path fill-rule="evenodd" clip-rule="evenodd" d="M103 32.8379C103 19.5831 92.2548 8.83789 79 8.83789C65.7452 8.83789 55 19.5831 55 32.8379L55 55.5455C55 68.8003 65.7452 79.5455 79 79.5455C92.2548 79.5455 103 68.8003 103 55.5455L103 32.8379ZM91 32.6225C91 25.9951 85.6274 20.6225 79 20.6225C72.3726 20.6225 67 25.9951 67 32.6225L67 55.7609C67 62.3883 72.3726 67.7609 79 67.7609C85.6274 67.7609 91 62.3883 91 55.7609L91 32.6225Z" fill="#310100"/>
<path fill-rule="evenodd" clip-rule="evenodd" d="M103 121.223C103 107.968 92.2548 97.2227 79 97.2227C65.7452 97.2227 55 107.968 55 121.223L55 143.93C55 157.185 65.7452 167.93 79 167.93C92.2548 167.93 103 157.185 103 143.93L103 121.223ZM91 121.007C91 114.38 85.6274 109.007 79 109.007C72.3726 109.007 67 114.38 67 121.007L67 144.146C67 150.773 72.3726 156.146 79 156.146C85.6274 156.146 91 150.773 91 144.146L91 121.007Z" fill="#310100"/>
<path fill-rule="evenodd" clip-rule="evenodd" d="M103 206.662C103 193.407 92.2548 182.662 79 182.662C65.7452 182.662 55 193.407 55 206.662L55 229.37C55 242.625 65.7452 253.37 79 253.37C92.2548 253.37 103 242.625 103 229.37L103 206.662ZM91 206.447C91 199.819 85.6274 194.447 79 194.447C72.3726 194.447 67 199.819 67 206.447L67 229.585C67 236.213 72.3726 241.585 79 241.585C85.6274 241.585 91 236.213 91 229.585L91 206.447Z" fill="#310100"/>
<path fill-rule="evenodd" clip-rule="evenodd" d="M103 292.1C103 278.845 92.2548 268.1 79 268.1C65.7452 268.1 55 278.845 55 292.1L55 314.807C55 328.062 65.7452 338.807 79 338.807C92.2548 338.807 103 328.062 103 314.807L103 292.1ZM91 291.884C91 285.257 85.6274 279.884 79 279.884C72.3726 279.884 67 285.257 67 291.884L67 315.023C67 321.65 72.3726 327.023 79 327.023C85.6274 327.023 91 321.65 91 315.023L91 291.884Z" fill="#310100"/>
<path fill-rule="evenodd" clip-rule="evenodd" d="M103 377.537C103 364.282 92.2548 353.537 79 353.537C65.7452 353.537 55 364.282 55 377.537L55 400.245C55 413.5 65.7452 424.245 79 424.245C92.2548 424.245 103 413.5 103 400.245L103 377.537ZM91 377.322C91 370.694 85.6274 365.322 79 365.322C72.3726 365.322 67 370.694 67 377.322L67 400.46C67 407.088 72.3726 412.46 79 412.46C85.6274 412.46 91 407.088 91 400.46L91 377.322Z" fill="#310100"/>
<path fill-rule="evenodd" clip-rule="evenodd" d="M103 462.977C103 449.722 92.2548 438.977 79 438.977C65.7452 438.977 55 449.722 55 462.977L55 485.684C55 498.939 65.7452 509.684 79 509.684C92.2548 509.684 103 498.939 103 485.684L103 462.977ZM91 462.761C91 456.134 85.6274 450.761 79 450.761C72.3726 450.761 67 456.134 67 462.761L67 485.9C67 492.527 72.3726 497.9 79 497.9C85.6274 497.9 91 492.527 91 485.9L91 462.761Z" fill="#310100"/>
<path fill-rule="evenodd" clip-rule="evenodd" d="M103 548.414C103 535.159 92.2548 524.414 79 524.414C65.7452 524.414 55 535.159 55 548.414L55 571.122C55 584.376 65.7452 595.122 79 595.122C92.2548 595.122 103 584.376 103 571.122L103 548.414ZM91 548.199C91 541.571 85.6274 536.199 79 536.199C72.3726 536.199 67 541.571 67 548.199L67 571.337C67 577.965 72.3726 583.337 79 583.337C85.6274 583.337 91 577.965 91 571.337L91 548.199Z" fill="#310100"/>
<rect x="85" y="53.0312" width="70.7076" height="12" rx="6" transform="rotate(90 85 53.0312)" fill="#310100"/>
<rect x="85" y="138.469" width="70.7076" height="12" rx="6" transform="rotate(90 85 138.469)" fill="#310100"/>
<rect x="85" y="223.908" width="70.7076" height="12" rx="6" transform="rotate(90 85 223.908)" fill="#310100"/>
<rect x="85" y="309.346" width="70.7076" height="12" rx="6" transform="rotate(90 85 309.346)" fill="#310100"/>
<rect x="85" y="394.783" width="70.7076" height="12" rx="6" transform="rotate(90 85 394.783)" fill="#310100"/>
<rect x="85" y="480.223" width="70.7076" height="12" rx="6" transform="rotate(90 85 480.223)" fill="#310100"/>
<path d="M79 565.66C82.3137 565.66 85 568.346 85 571.66L85 601.014L73 601.014L73 571.66C73 568.346 75.6863 565.66 79 565.66V565.66Z" fill="#310100"/>
<path d="M79 35.3535C75.6863 35.3535 73 32.6672 73 29.3535L73 -0.000273705L85 -0.000272159L85 29.3535C85 32.6672 82.3137 35.3535 79 35.3535V35.3535Z" fill="#310100"/>
<path fill-rule="evenodd" clip-rule="evenodd" d="M103 633.852C103 620.597 92.2548 609.852 79 609.852C65.7452 609.852 55 620.597 55 633.852L55 656.559C55 669.814 65.7452 680.559 79 680.559C92.2548 680.559 103 669.814 103 656.559L103 633.852ZM91 633.636C91 627.009 85.6274 621.636 79 621.636C72.3726 621.636 67 627.009 67 633.636L67 656.775C67 663.402 72.3726 668.775 79 668.775C85.6274 668.775 91 663.402 91 656.775L91 633.636Z" fill="#310100"/>
<path fill-rule="evenodd" clip-rule="evenodd" d="M103 722.236C103 708.981 92.2548 698.236 79 698.236C65.7452 698.236 55 708.982 55 722.236L55 744.944C55 758.199 65.7452 768.944 79 768.944C92.2548 768.944 103 758.199 103 744.944L103 722.236ZM91 722.021C91 715.394 85.6274 710.021 79 710.021C72.3726 710.021 67 715.393 67 722.021L67 745.159C67 751.787 72.3726 757.159 79 757.159C85.6274 757.159 91 751.787 91 745.159L91 722.021Z" fill="#310100"/>
<path fill-rule="evenodd" clip-rule="evenodd" d="M103 1301.65C103 1288.39 92.2548 1277.65 79 1277.65C65.7452 1277.65 55 1288.39 55 1301.65L55 1324.35C55 1337.61 65.7452 1348.35 79 1348.35C92.2548 1348.35 103 1337.61 103 1324.35L103 1301.65ZM91 1301.43C91 1294.8 85.6274 1289.43 79 1289.43C72.3726 1289.43 67 1294.8 67 1301.43L67 1324.57C67 1331.2 72.3726 1336.57 79 1336.57C85.6274 1336.57 91 1331.2 91 1324.57L91 1301.43Z" fill="#310100"/>
<path fill-rule="evenodd" clip-rule="evenodd" d="M103 1130.77C103 1117.51 92.2548 1106.77 79 1106.77C65.7452 1106.77 55 1117.51 55 1130.77L55 1153.48C55 1166.73 65.7452 1177.48 79 1177.48C92.2548 1177.48 103 1166.73 103 1153.48L103 1130.77ZM91 1130.55C91 1123.93 85.6274 1118.55 79 1118.55C72.3726 1118.55 67 1123.93 67 1130.55L67 1153.69C67 1160.32 72.3726 1165.69 79 1165.69C85.6274 1165.69 91 1160.32 91 1153.69L91 1130.55Z" fill="#310100"/>
<path fill-rule="evenodd" clip-rule="evenodd" d="M103 1045.33C103 1032.08 92.2548 1021.33 79 1021.33C65.7452 1021.33 55 1032.08 55 1045.33L55 1068.04C55 1081.29 65.7452 1092.04 79 1092.04C92.2548 1092.04 103 1081.29 103 1068.04L103 1045.33ZM91 1045.11C91 1038.49 85.6274 1033.11 79 1033.11C72.3726 1033.11 67 1038.49 67 1045.11L67 1068.25C67 1074.88 72.3726 1080.25 79 1080.25C85.6274 1080.25 91 1074.88 91 1068.25L91 1045.11Z" fill="#310100"/>
<path fill-rule="evenodd" clip-rule="evenodd" d="M103 1387.08C103 1373.83 92.2548 1363.08 79 1363.08C65.7452 1363.08 55 1373.83 55 1387.08L55 1409.79C55 1423.05 65.7452 1433.79 79 1433.79C92.2548 1433.79 103 1423.05 103 1409.79L103 1387.08ZM91 1386.87C91 1380.24 85.6274 1374.87 79 1374.87C72.3726 1374.87 67 1380.24 67 1386.87L67 1410.01C67 1416.63 72.3726 1422.01 79 1422.01C85.6274 1422.01 91 1416.63 91 1410.01L91 1386.87Z" fill="#310100"/>
<path fill-rule="evenodd" clip-rule="evenodd" d="M103 1216.21C103 1202.95 92.2548 1192.21 79 1192.21C65.7452 1192.21 55 1202.95 55 1216.21L55 1238.91C55 1252.17 65.7452 1262.91 79 1262.91C92.2548 1262.91 103 1252.17 103 1238.91L103 1216.21ZM91 1215.99C91 1209.36 85.6274 1203.99 79 1203.99C72.3726 1203.99 67 1209.36 67 1215.99L67 1239.13C67 1245.76 72.3726 1251.13 79 1251.13C85.6274 1251.13 91 1245.76 91 1239.13L91 1215.99Z" fill="#310100"/>
<path fill-rule="evenodd" clip-rule="evenodd" d="M103 1130.77C103 1117.51 92.2548 1106.77 79 1106.77C65.7452 1106.77 55 1117.51 55 1130.77L55 1153.48C55 1166.73 65.7452 1177.48 79 1177.48C92.2548 1177.48 103 1166.73 103 1153.48L103 1130.77ZM91 1130.55C91 1123.93 85.6274 1118.55 79 1118.55C72.3726 1118.55 67 1123.93 67 1130.55L67 1153.69C67 1160.32 72.3726 1165.69 79 1165.69C85.6274 1165.69 91 1160.32 91 1153.69L91 1130.55Z" fill="#310100"/>
<path fill-rule="evenodd" clip-rule="evenodd" d="M103 1472.52C103 1459.27 92.2548 1448.52 79 1448.52C65.7452 1448.52 55 1459.27 55 1472.52L55 1495.23C55 1508.48 65.7452 1519.23 79 1519.23C92.2548 1519.23 103 1508.48 103 1495.23L103 1472.52ZM91 1472.31C91 1465.68 85.6274 1460.31 79 1460.31C72.3726 1460.31 67 1465.68 67 1472.31L67 1495.45C67 1502.07 72.3726 1507.45 79 1507.45C85.6274 1507.45 91 1502.07 91 1495.45L91 1472.31Z" fill="#310100"/>
<path fill-rule="evenodd" clip-rule="evenodd" d="M103 1557.96C103 1544.71 92.2548 1533.96 79 1533.96C65.7452 1533.96 55 1544.71 55 1557.96L55 1580.67C55 1593.92 65.7452 1604.67 79 1604.67C92.2548 1604.67 103 1593.92 103 1580.67L103 1557.96ZM91 1557.75C91 1551.12 85.6274 1545.75 79 1545.75C72.3726 1545.75 67 1551.12 67 1557.75L67 1580.88C67 1587.51 72.3726 1592.88 79 1592.88C85.6274 1592.88 91 1587.51 91 1580.88L91 1557.75Z" fill="#310100"/>
<path fill-rule="evenodd" clip-rule="evenodd" d="M103 1643.4C103 1630.14 92.2548 1619.4 79 1619.4C65.7452 1619.4 55 1630.14 55 1643.4L55 1666.11C55 1679.36 65.7452 1690.11 79 1690.11C92.2548 1690.11 103 1679.36 103 1666.11L103 1643.4ZM91 1643.18C91 1636.56 85.6274 1631.18 79 1631.18C72.3726 1631.18 67 1636.56 67 1643.18L67 1666.32C67 1672.95 72.3726 1678.32 79 1678.32C85.6274 1678.32 91 1672.95 91 1666.32L91 1643.18Z" fill="#310100"/>
<rect x="85" y="654.045" width="70.7076" height="12" rx="6" transform="rotate(90 85 654.045)" fill="#310100"/>
<rect x="85" y="739.482" width="70.7076" height="12" rx="6" transform="rotate(90 85 739.482)" fill="#310100"/>
<rect x="85" y="1233.45" width="70.7076" height="12" rx="6" transform="rotate(90 85 1233.45)" fill="#310100"/>
<rect x="85" y="1318.89" width="70.7076" height="12" rx="6" transform="rotate(90 85 1318.89)" fill="#310100"/>
<rect x="85" y="1148.02" width="70.7076" height="12" rx="6" transform="rotate(90 85 1148.02)" fill="#310100"/>
<rect x="85" y="1062.58" width="70.7076" height="12" rx="6" transform="rotate(90 85 1062.58)" fill="#310100"/>
<rect x="85" y="974.193" width="70.7076" height="12" rx="6" transform="rotate(90 85 974.193)" fill="#310100"/>
<rect x="85" y="1404.33" width="70.7076" height="12" rx="6" transform="rotate(90 85 1404.33)" fill="#310100"/>
<rect x="85" y="1233.45" width="70.7076" height="12" rx="6" transform="rotate(90 85 1233.45)" fill="#310100"/>
<rect x="85" y="1148.02" width="70.7076" height="12" rx="6" transform="rotate(90 85 1148.02)" fill="#310100"/>
<rect x="85" y="1489.77" width="70.7076" height="12" rx="6" transform="rotate(90 85 1489.77)" fill="#310100"/>
<rect x="85" y="1575.21" width="70.7076" height="12" rx="6" transform="rotate(90 85 1575.21)" fill="#310100"/>
<path d="M79 1575.21C82.3137 1575.21 85 1577.89 85 1581.21L85 1610.56L73 1610.56L73 1581.21C73 1577.89 75.6863 1575.21 79 1575.21V1575.21Z" fill="#310100"/>
<path d="M79 1660.65C82.3137 1660.65 85 1663.33 85 1666.65L85 1696L73 1696L73 1666.65C73 1663.33 75.6863 1660.65 79 1660.65V1660.65Z" fill="#310100"/>
<path d="M79 636.367C75.6863 636.367 73 633.681 73 630.367L73 601.013L85 601.013L85 630.367C85 633.681 82.3137 636.367 79 636.367V636.367Z" fill="#310100"/>
</svg>
