<svg width="136" height="134" viewBox="0 0 136 134" fill="none" xmlns="http://www.w3.org/2000/svg">
<path d="M41.4444 77.2934C38.6667 86.5628 41.4444 91.6188 47 94.9893V111C42.7485 106.259 35.0556 101.45 25.6111 106.225C25.6111 97.2366 19.5 92.4615 12 93.0231C16.4444 81.2258 27.8333 75.6082 41.4444 77.2934Z" fill="#9E151E"/>
<path d="M94.5556 77.2934C97.3333 86.5628 94.5556 91.6188 89 94.9893V111C93.2515 106.259 100.944 101.45 110.389 106.225C110.389 97.2366 116.5 92.4615 124 93.0231C119.556 81.2258 108.167 75.6082 94.5556 77.2934Z" fill="#9E151E"/>
<path d="M98.5366 119.609C98.4097 119.405 98.3001 119.191 98.2094 118.967L98.1426 118.794C97.8723 118.035 97.8233 117.207 98.0008 116.399C98.1784 115.591 98.5758 114.833 99.151 114.204C99.7263 113.576 100.458 113.101 101.268 112.83C102.079 112.559 102.938 112.502 103.755 112.665L103.949 112.707L103.995 112.722L111.194 114.617C111.783 114.772 112.135 115.377 111.979 115.966L110.046 123.271C109.812 124.088 109.351 124.838 108.717 125.439C108.082 126.04 107.297 126.467 106.45 126.674C105.602 126.881 104.725 126.86 103.914 126.612C103.104 126.364 102.393 125.899 101.859 125.27C101.427 124.759 101.123 124.155 100.971 123.501C100.968 123.487 100.965 123.472 100.961 123.458C94.6667 125.833 87.3978 123.373 83.9239 117.357L79.7383 110.107L83.5598 107.9L87.7454 115.15C89.9645 118.994 94.4459 120.717 98.5366 119.609Z" fill="#9E151E"/>
<path d="M45.755 91.2528C48.4921 88.5157 52.9298 88.5157 55.6669 91.2528V91.2528C58.4039 93.9899 58.4039 98.4276 55.6669 101.165L45.1616 111.67C42.4246 114.407 37.9869 114.407 35.2498 111.67V111.67C32.5127 108.933 32.5127 104.495 35.2498 101.758L45.755 91.2528Z" fill="#FA1F2E"/>
<path d="M88.7958 91.2528C86.0587 88.5157 81.621 88.5157 78.8839 91.2528V91.2528C76.1468 93.9899 76.1468 98.4276 78.8839 101.165L89.3891 111.67C92.1262 114.407 96.5639 114.407 99.301 111.67V111.67C102.038 108.933 102.038 104.495 99.301 101.758L88.7958 91.2528Z" fill="#FA1F2E"/>
<rect x="52" y="108" width="13" height="26" rx="6.5" fill="#FA1F2E"/>
<rect x="69" y="108" width="13" height="26" rx="6.5" fill="#FA1F2E"/>
<path d="M47 91H87V112C87 116.418 83.4183 120 79 120H55C50.5817 120 47 116.418 47 112V91Z" fill="#FA1F2E"/>
<path d="M19 59.1268C19 34.7563 38.7563 15 63.1268 15H71.8732C96.2437 15 116 34.7563 116 59.1268V67.5239C116 82.1462 104.146 94 89.5239 94H45.4761C30.8538 94 19 82.1462 19 67.5239V59.1268Z" fill="#FA1F2E"/>
<path d="M39.3261 93.282C30.7639 91.2452 23.8133 85.0498 20.7266 76.9481C22.8783 73.0051 27.0619 70.3301 31.8702 70.3301C38.8768 70.3301 44.5567 76.01 44.5567 83.0165C44.5567 87.2367 42.4961 90.9756 39.3261 93.282Z" fill="#FF4136"/>
<path d="M114.157 77.2487C110.989 85.2681 104.017 91.3698 95.466 93.3306C92.2579 91.0284 90.1681 87.2665 90.1681 83.0165C90.1681 76.01 95.8481 70.3301 102.855 70.3301C107.784 70.3301 112.057 73.1417 114.157 77.2487Z" fill="#FF4136"/>
<path d="M44 53C44 48.0294 48.0294 44 53 44C57.9706 44 62 48.0294 62 53V64C62 68.9706 57.9706 73 53 73C48.0294 73 44 68.9706 44 64V53Z" fill="#FFE920"/>
<path d="M73 53C73 48.0294 77.0294 44 82 44C86.9706 44 91 48.0294 91 53V65C91 69.9706 86.9706 74 82 74C77.0294 74 73 69.9706 73 65V53Z" fill="#FFE920"/>
<path d="M44.2802 26.7135C44.7055 36.7721 36.5271 45.4378 27.4233 46.2068C25.8953 46.3358 24.4443 45.6494 23.3303 44.5956L17.6254 39.1992C11.3037 33.2192 10.6936 23.3647 16.2296 16.6507L28.5266 1.73699C29.941 0.0217162 32.7174 1.23847 32.4147 3.44094L30.732 15.6879C30.4209 17.9517 31.8896 20.0785 34.1168 20.5895L39.7918 21.8915C42.1805 22.4395 44.1767 24.265 44.2802 26.7135Z" fill="#9E151E"/>
<path d="M91.376 26.7135C90.9507 36.772 99.1291 45.4378 108.233 46.2068C109.761 46.3358 111.212 45.6494 112.326 44.5956L118.031 39.1992C124.353 33.2192 124.963 23.3647 119.427 16.6507L107.13 1.73699C105.715 0.0217153 102.939 1.23847 103.242 3.44094L104.924 15.6879C105.235 17.9517 103.767 20.0785 101.539 20.5895L95.8645 21.8915C93.4758 22.4395 91.4796 24.265 91.376 26.7135Z" fill="#9E151E"/>
</svg>
