<svg width="164" height="129" viewBox="0 0 164 129" fill="none" xmlns="http://www.w3.org/2000/svg">
<path d="M32.8095 43.3279C29.7143 53.6879 32.8095 59.3387 39 63.1057V81C34.2626 75.7016 25.6905 70.3263 15.1667 75.663C15.1667 65.6173 8.35714 60.2805 0 60.9082C4.95238 47.723 17.6429 41.4445 32.8095 43.3279Z" fill="black"/>
<path d="M131.19 43.3279C134.286 53.6879 131.19 59.3387 125 63.1057V81C129.737 75.7016 138.31 70.3263 148.833 75.663C148.833 65.6173 155.643 60.2805 164 60.9082C159.048 47.723 146.357 41.4445 131.19 43.3279Z" fill="black"/>
<path d="M141.568 107.089C141.216 106.622 140.926 106.11 140.705 105.565L140.597 105.287C140.161 104.061 140.082 102.727 140.368 101.423C140.655 100.12 141.296 98.8975 142.223 97.8845C143.151 96.8714 144.331 96.1057 145.638 95.6686C146.945 95.2315 148.331 95.1392 149.648 95.4015L149.961 95.4704L150.035 95.4941L160.462 98.2388C162.065 98.661 163.022 100.304 162.598 101.907L159.793 112.505C159.415 113.823 158.673 115.033 157.649 116.002C156.626 116.971 155.36 117.66 153.994 117.994C152.627 118.328 151.212 118.293 149.905 117.893C148.598 117.493 147.451 116.744 146.591 115.729C145.893 114.906 145.404 113.931 145.159 112.877C145.111 112.67 145.072 112.461 145.043 112.251C135.122 116.048 123.633 112.185 118.152 102.691L111.402 91L116.598 88L123.348 99.6913C127.091 106.173 134.683 109.046 141.568 107.089Z" fill="black"/>
<path d="M69 15C51.8792 15 38 28.8792 38 46V57.1274C31.2544 63.0825 27 71.7944 27 81.5C27 98.6081 40.2189 112.629 57 113.905V121C57 125.418 60.5817 129 65 129C69.4183 129 73 125.418 73 121V114H93V121C93 125.418 96.5817 129 101 129C105.418 129 109 125.418 109 121V113.691C124.82 111.5 137 97.9224 137 81.5C137 71.7944 132.746 63.0825 126 57.1274V46C126 28.8792 112.121 15 95 15H69Z" fill="black"/>
<path d="M58 46C58 41.0294 62.0294 37 67 37C71.9706 37 76 41.0294 76 46V55C76 59.9706 71.9706 64 67 64C62.0294 64 58 59.9706 58 55V46Z" fill="#FFE920"/>
<path d="M88 46C88 41.0294 92.0294 37 97 37C101.971 37 106 41.0294 106 46V55C106 59.9706 101.971 64 97 64C92.0294 64 88 59.9706 88 55V46Z" fill="#FFE920"/>
<path d="M63.5521 22.9941C61.6739 30.27 54.2184 34.8912 47.4907 33.8554C46.1145 33.6435 45.0058 32.6881 44.281 31.4991L42.2348 28.1427C38.1531 21.4472 39.9172 12.7376 46.2828 8.1583L56.0608 1.12409C57.6975 -0.053406 59.8508 1.65675 59.0745 3.51765L55.9427 11.0251C55.1492 12.9272 55.9309 15.1209 57.7484 16.0926L60.8289 17.7395C62.7811 18.7833 64.1054 20.8507 63.5521 22.9941Z" fill="black"/>
<path d="M99.4479 22.9941C101.326 30.27 108.782 34.8912 115.509 33.8554C116.886 33.6435 117.994 32.6881 118.719 31.4991L120.765 28.1427C124.847 21.4472 123.083 12.7376 116.717 8.1583L106.939 1.12409C105.302 -0.053406 103.149 1.65675 103.925 3.51765L107.057 11.0251C107.851 12.9272 107.069 15.1209 105.252 16.0926L102.171 17.7395C100.219 18.7833 98.8946 20.8507 99.4479 22.9941Z" fill="black"/>
</svg>
