<svg width="121" height="120" viewBox="0 0 121 120" fill="none" xmlns="http://www.w3.org/2000/svg">
<circle cx="60.082" cy="60" r="48.5" fill="#FFE920" stroke="white" stroke-width="7"/>
<circle cx="60.0836" cy="59.9996" r="27.439" fill="#FEC104"/>
<path d="M57.885 43.7126C59.072 42.433 61.0966 42.433 62.2837 43.7126L68.0411 49.9189L75.7399 53.3996C77.3508 54.1278 77.9859 56.0841 77.1099 57.6197L72.9587 64.8964L71.9915 73.2282C71.7893 74.9705 70.1419 76.1684 68.4221 75.8238L60.0843 74.153L51.7465 75.8238C50.0267 76.1684 48.3794 74.9705 48.1771 73.2282L47.2099 64.8964L43.0588 57.6197C42.1828 56.0841 42.8178 54.1278 44.4287 53.3996L52.1275 49.9189L57.885 43.7126Z" fill="#FFE920"/>
</svg>
