<svg width="121" height="120" viewBox="0 0 121 120" fill="none" xmlns="http://www.w3.org/2000/svg">
<path d="M95.6587 42.3373L92.4551 37.3374C90.7021 34.6015 86.8832 34.1556 84.547 36.414L80.6251 40.2055L64.7547 16.1448C62.3833 12.5497 57.1089 12.5497 54.7375 16.1448L38.8671 40.2055L34.9451 36.414C32.609 34.1556 28.7901 34.6014 27.0371 37.3374L23.8335 42.3373C5.64384 70.7258 26.03 108 59.7461 108C93.4621 108 113.848 70.7258 95.6587 42.3373Z" fill="#FFE920" stroke="white" stroke-width="6"/>
<path d="M41.1078 56.2321C41.4321 55.746 42.1355 55.7154 42.5007 56.1717L46.1225 60.6964L58.9108 41.2689C59.3059 40.6687 60.1863 40.6687 60.5814 41.2689L73.3697 60.6964L76.9915 56.1717C77.3567 55.7154 78.0601 55.746 78.3844 56.2321L81.3328 60.6524C92.835 77.8962 80.474 101 59.7461 101V101C39.0182 101 26.6572 77.8962 38.1593 60.6524L41.1078 56.2321Z" fill="#FEC104"/>
<path d="M48.4111 69.8432C48.6077 69.5492 49.0332 69.5308 49.2546 69.8066L51.4596 72.5536L58.9115 61.2643C59.3068 60.6655 60.1854 60.6655 60.5807 61.2643L68.0326 72.5536L70.2376 69.8066C70.4589 69.5308 70.8845 69.5492 71.0811 69.8432L72.8447 72.4798C79.8486 82.9507 72.3435 97 59.7461 97V97C47.1487 97 39.6436 82.9507 46.6475 72.4798L48.4111 69.8432Z" fill="#F6660A"/>
</svg>
