<svg width="120" height="120" viewBox="0 0 120 120" fill="none" xmlns="http://www.w3.org/2000/svg">
<path d="M36.8301 13.9629L36.8299 13.963C31.2431 14.974 26.0534 17.6029 21.8281 21.53C17.6047 25.4554 14.5089 30.5238 12.858 36.1609C11.2073 41.7974 11.0588 47.8036 12.4273 53.5216C13.7959 59.2401 16.6342 64.4695 20.6529 68.6206C20.6697 68.638 20.6867 68.6552 20.7039 68.6722L53.5972 101.269C57.3197 104.958 63.3265 104.936 67.0215 101.219L99.1278 68.9234L99.2765 68.7885C99.3564 68.7161 99.4329 68.64 99.5058 68.5605L100.315 67.6771C100.331 67.6596 100.347 67.642 100.363 67.6242C104.099 63.3781 106.666 58.159 107.816 52.5267C108.967 46.8949 108.662 41.0382 106.93 35.5702C105.199 30.1015 102.099 25.2062 97.9341 21.4156C93.7678 17.6234 88.6912 15.0792 83.235 14.079C83.2038 14.0733 83.1725 14.068 83.1412 14.0632L82.0347 13.8912C82.0155 13.8883 81.9963 13.8854 81.9771 13.8828C77.6476 13.2838 73.2489 13.6725 69.0785 15.0195C65.8335 16.0676 62.7909 17.6751 60.0689 19.764C57.1706 17.5129 53.9045 15.8111 50.4155 14.7528C46.0031 13.4146 41.3589 13.1437 36.8301 13.9629Z" fill="#FA1F2E" stroke="white" stroke-width="7" stroke-linecap="round" stroke-linejoin="round"/>
</svg>
