<svg width="121" height="120" viewBox="0 0 121 120" fill="none" xmlns="http://www.w3.org/2000/svg">
<path d="M48.0534 18C28.2344 18 12.168 34.0665 12.168 53.8854C12.168 70.1743 23.018 83.9225 37.8828 88.3084V91.5721C37.8828 96.7793 42.1041 101.001 47.3114 101.001C49.7955 101.001 52.0551 100.04 53.7391 98.4701C55.4232 100.04 57.6828 101.001 60.1669 101.001C62.6518 101.001 64.9122 100.039 66.5965 98.4683C68.2808 100.039 70.5413 101.001 73.0262 101.001C78.2335 101.001 82.4548 96.7794 82.4548 91.5721V88.3079C97.3187 83.9215 108.168 70.1736 108.168 53.8854C108.168 34.0665 92.1015 18 72.2826 18H48.0534Z" stroke="white" stroke-width="6"/>
<path d="M48.0495 21C29.8874 21 15.1641 35.7233 15.1641 53.8854C15.1641 69.5847 26.1651 82.7146 40.8789 85.9868V91.5721C40.8789 95.1225 43.7571 98.0006 47.3075 98.0006C50.8229 98.0006 53.6792 95.179 53.7352 91.6769C53.7912 95.1789 56.6475 98.0006 60.1629 98.0006C63.7133 98.0006 66.5915 95.1225 66.5915 91.5721V86.7708H66.5938V91.5721C66.5938 95.1225 69.4719 98.0006 73.0223 98.0006C76.5727 98.0006 79.4509 95.1225 79.4509 91.5721V85.9864C94.1639 82.7136 105.164 69.5841 105.164 53.8854C105.164 35.7233 90.4408 21 72.2786 21H48.0495Z" fill="#3B3B3B"/>
<path d="M34.4492 53.9018C34.4492 49.02 38.4067 45.0625 43.2885 45.0625C48.1703 45.0625 52.1278 49.02 52.1278 53.9018V63.494C52.1278 68.3758 48.1703 72.3333 43.2885 72.3333C38.4067 72.3333 34.4492 68.3759 34.4492 63.494V53.9018Z" fill="#FFE920"/>
<path d="M66.5898 53.9018C66.5898 49.02 70.5473 45.0625 75.4291 45.0625C80.3109 45.0625 84.2684 49.02 84.2684 53.9018V63.494C84.2684 68.3758 80.3109 72.3333 75.4291 72.3333C70.5473 72.3333 66.5898 68.3759 66.5898 63.494V53.9018Z" fill="#FFE920"/>
</svg>
