<svg width="121" height="120" viewBox="0 0 121 120" fill="none" xmlns="http://www.w3.org/2000/svg">
<path d="M71.3631 35.9731V53.4918C71.3631 54.88 70.2378 56.0053 68.8497 56.0053C67.4615 56.0053 66.3362 54.88 66.3362 53.4918V30.5745C68.7238 29.5021 70.0141 26.6251 68.8632 24.0007L64.9079 14.982C63.1584 10.993 57.4994 10.993 55.7499 14.982L51.7946 24.0007C50.6434 26.6255 51.9344 29.5031 54.3228 30.5751V53.4915C54.3228 54.8798 53.1973 56.0053 51.809 56.0053C50.4209 56.0053 49.2955 54.88 49.2953 53.4918L49.293 35.9721C51.0145 34.6391 51.7976 32.2289 50.8199 29.9996L46.8646 20.9809C45.1151 16.9919 39.4561 16.9919 37.7066 20.9809L33.7514 29.9996L36.4987 31.2045L33.7514 29.9996C32.6003 32.6241 33.8909 35.5012 36.2786 36.5736V53.0043C36.2786 61.8414 43.4443 69.0044 52.2804 69.0042L54.3281 69.0041L54.3281 89.4371C51.9458 90.511 50.6585 93.3826 51.8054 96.0041L55.7473 105.014C57.495 109.009 63.1613 109.009 64.9089 105.014L68.8509 96.0041C69.9978 93.3826 68.7104 90.511 66.3281 89.4371L66.3281 69.0037L68.3749 69.0036C77.2109 69.0033 84.3766 61.8405 84.3766 53.0034V36.5736C86.7643 35.5012 88.0549 32.6241 86.9038 29.9996L82.9486 20.9809C81.1991 16.9919 75.54 16.9919 73.7906 20.9809L69.8353 29.9996C68.8575 32.2291 69.6412 34.6402 71.3631 35.9731Z" fill="#FA1F2E" stroke="white" stroke-width="6"/>
</svg>
